<svg id="svg" version="1.1" xmlns="http://www.w3.org/2000/svg" xmlns:xlink="http://www.w3.org/1999/xlink" width="400" height="238.70967741935485" viewBox="0, 0, 400,238.70967741935485"><g id="svgg"><path id="path0" d="M164.169 191.539 C 164.107 191.639,164.192 191.782,164.357 191.858 C 164.522 191.934,164.406 191.933,164.099 191.856 C 163.606 191.732,163.547 191.795,163.587 192.395 C 163.692 193.951,163.579 194.592,163.189 194.669 C 162.924 194.721,162.766 195.055,162.703 195.701 C 162.652 196.227,162.437 196.788,162.224 196.948 C 161.993 197.123,161.808 197.678,161.763 198.331 C 161.679 199.545,161.510 199.956,161.178 199.751 C 161.055 199.675,160.943 200.023,160.927 200.523 C 160.885 201.862,160.630 202.853,160.358 202.733 C 160.218 202.671,160.089 203.204,160.047 204.021 C 159.992 205.081,159.897 205.385,159.649 205.290 C 159.228 205.128,159.045 205.631,159.045 206.945 C 159.045 207.879,158.983 208.000,158.507 208.004 C 158.073 208.007,158.039 208.052,158.328 208.239 C 158.567 208.393,158.587 208.472,158.388 208.474 C 158.190 208.476,158.090 208.878,158.090 209.672 C 158.090 210.328,158.009 210.853,157.910 210.837 C 157.459 210.766,157.188 210.890,157.198 211.164 C 157.257 212.732,157.101 213.471,156.684 213.603 C 156.437 213.682,156.239 213.877,156.244 214.037 C 156.295 215.535,156.145 216.358,155.821 216.358 C 155.455 216.358,155.432 216.423,155.339 217.672 C 155.310 218.066,155.272 218.522,155.255 218.687 C 155.238 218.851,155.073 218.985,154.889 218.985 C 154.658 218.985,154.503 219.424,154.390 220.401 C 154.288 221.276,154.097 221.865,153.889 221.945 C 153.643 222.040,153.552 222.529,153.552 223.754 L 153.552 225.433 155.881 225.429 C 158.132 225.426,158.876 225.268,158.790 224.814 C 158.768 224.695,158.776 224.516,158.808 224.418 C 158.941 224.008,158.987 223.730,159.015 223.164 C 159.033 222.806,159.188 222.567,159.403 222.567 C 159.607 222.567,159.773 222.336,159.789 222.030 C 159.804 221.734,159.841 221.385,159.872 221.254 C 159.902 221.122,159.944 220.719,159.964 220.358 C 159.985 219.974,160.124 219.726,160.299 219.761 C 160.503 219.802,160.619 219.390,160.669 218.448 C 160.730 217.270,160.807 217.075,161.206 217.075 C 161.609 217.075,161.672 216.905,161.672 215.814 C 161.672 214.827,161.775 214.478,162.149 214.209 C 162.521 213.941,162.627 213.591,162.627 212.631 C 162.627 211.602,162.696 211.402,163.045 211.430 C 163.483 211.464,163.510 211.373,163.555 209.731 C 163.578 208.877,163.659 208.716,164.070 208.716 C 164.339 208.716,164.541 208.582,164.519 208.418 C 164.374 207.297,164.569 206.090,164.896 206.090 C 165.093 206.090,165.267 205.982,165.284 205.851 C 165.300 205.719,165.340 205.504,165.373 205.373 C 165.406 205.242,165.446 204.704,165.463 204.179 C 165.484 203.502,165.597 203.224,165.851 203.224 C 166.048 203.224,166.196 203.143,166.181 203.045 C 166.165 202.946,166.178 202.758,166.208 202.627 C 166.239 202.496,166.289 202.281,166.320 202.149 C 166.350 202.018,166.391 201.555,166.411 201.120 C 166.431 200.686,166.544 200.389,166.662 200.462 C 166.969 200.652,167.164 200.002,167.164 198.786 C 167.164 197.807,167.310 197.604,167.940 197.703 C 168.039 197.719,168.119 197.099,168.119 196.326 C 168.119 195.122,168.188 194.904,168.597 194.796 C 169.171 194.646,169.331 191.669,168.776 191.462 C 168.280 191.277,164.290 191.344,164.169 191.539 M171.125 193.400 C 171.050 193.520,171.015 200.535,171.047 208.989 L 171.104 224.358 174.209 224.358 L 177.313 224.358 177.313 208.836 L 177.313 193.313 174.287 193.247 C 172.623 193.210,171.200 193.279,171.125 193.400 M250.562 193.474 C 250.354 193.682,250.269 194.900,250.269 197.660 C 250.269 201.790,250.309 201.659,249.075 201.554 C 248.459 201.502,248.061 201.123,248.269 200.788 C 248.333 200.683,246.382 200.597,243.932 200.597 C 239.768 200.597,239.470 200.626,239.360 201.047 C 239.279 201.358,238.941 201.546,238.276 201.652 C 237.744 201.737,237.377 201.874,237.459 201.956 C 237.663 202.161,237.129 202.771,236.880 202.618 C 236.771 202.550,236.564 202.712,236.421 202.978 C 236.279 203.245,235.978 203.464,235.753 203.466 C 235.432 203.469,235.413 203.514,235.667 203.675 C 235.897 203.821,235.913 203.929,235.723 204.046 C 235.576 204.138,235.512 204.305,235.582 204.418 C 235.652 204.531,235.439 204.915,235.108 205.272 C 234.778 205.629,234.507 206.150,234.507 206.430 C 234.507 206.710,234.313 207.079,234.076 207.250 C 233.679 207.537,233.647 208.005,233.685 213.094 C 233.732 219.492,233.692 218.985,234.149 218.985 C 234.399 218.985,234.507 219.237,234.507 219.821 C 234.507 220.570,234.676 220.766,235.255 220.695 C 235.337 220.684,235.473 221.102,235.556 221.622 C 235.647 222.190,235.838 222.567,236.035 222.567 C 236.215 222.567,236.419 222.785,236.489 223.052 C 236.559 223.318,236.705 223.512,236.815 223.482 C 237.150 223.391,238.090 223.779,238.090 224.009 C 238.090 224.127,237.911 224.155,237.692 224.071 C 237.421 223.967,237.351 224.010,237.471 224.205 C 237.568 224.362,237.774 224.475,237.928 224.456 C 238.841 224.343,239.284 224.506,239.284 224.955 C 239.284 225.416,239.443 225.433,243.821 225.433 C 248.199 225.433,248.358 225.416,248.358 224.955 C 248.358 224.602,248.517 224.478,248.971 224.478 C 249.308 224.478,249.791 224.366,250.046 224.230 C 250.368 224.058,250.507 224.060,250.507 224.238 C 250.507 224.408,251.516 224.470,253.552 224.425 L 256.597 224.358 256.597 208.836 L 256.597 193.313 253.726 193.247 C 251.697 193.200,250.770 193.266,250.562 193.474 M187.910 200.716 C 187.894 200.782,187.867 200.970,187.851 201.134 C 187.834 201.301,187.415 201.466,186.899 201.509 C 186.226 201.564,185.944 201.709,185.856 202.046 C 185.790 202.300,185.590 202.507,185.413 202.507 C 185.236 202.507,184.975 202.725,184.832 202.992 C 184.690 203.258,184.464 203.409,184.330 203.326 C 184.197 203.243,184.029 203.398,183.958 203.670 C 183.887 203.941,183.626 204.228,183.377 204.307 C 183.129 204.386,182.925 204.549,182.925 204.670 C 182.925 204.791,182.737 205.110,182.507 205.378 C 182.054 205.908,182.044 205.942,182.000 207.136 C 181.979 207.717,181.841 207.978,181.512 208.064 C 181.080 208.177,181.054 208.453,181.054 212.978 C 181.054 217.494,181.080 217.780,181.512 217.917 C 181.812 218.012,181.971 218.283,181.973 218.703 C 181.979 219.710,182.235 220.418,182.595 220.418 C 182.777 220.418,182.925 220.632,182.925 220.893 C 182.925 221.155,183.140 221.503,183.403 221.667 C 183.666 221.831,183.881 222.101,183.881 222.266 C 183.881 222.432,184.096 222.567,184.358 222.567 C 184.677 222.567,184.836 222.726,184.836 223.045 C 184.836 223.363,184.995 223.522,185.313 223.522 C 185.632 223.522,185.791 223.682,185.791 224.000 C 185.791 224.263,185.872 224.465,185.970 224.449 C 186.928 224.298,187.701 224.520,187.701 224.946 C 187.701 225.397,187.897 225.414,193.075 225.414 C 198.400 225.414,198.591 225.387,198.476 224.657 C 198.452 224.504,199.623 224.362,200.179 224.449 C 200.278 224.465,200.358 224.263,200.358 224.000 C 200.358 223.682,200.517 223.522,200.836 223.522 C 201.154 223.522,201.313 223.363,201.313 223.045 C 201.313 222.726,201.473 222.567,201.791 222.567 C 202.054 222.567,202.269 222.413,202.269 222.225 C 202.269 222.037,202.484 221.815,202.746 221.731 C 203.049 221.635,203.224 221.370,203.224 221.006 C 203.224 220.593,203.325 220.472,203.585 220.571 C 203.853 220.674,203.904 220.601,203.783 220.286 C 203.670 219.991,203.707 219.916,203.906 220.038 C 204.063 220.135,204.176 220.126,204.157 220.018 C 203.989 219.053,204.227 218.047,204.655 217.911 C 205.114 217.765,205.127 217.588,205.034 212.940 C 204.915 207.021,204.939 207.284,204.522 207.284 C 204.208 207.284,204.057 206.690,204.167 205.886 C 204.191 205.709,204.096 205.635,203.956 205.721 C 203.816 205.808,203.701 205.711,203.701 205.507 C 203.701 205.302,203.607 205.134,203.491 205.134 C 203.375 205.134,203.223 204.919,203.155 204.657 C 203.086 204.394,202.871 204.179,202.677 204.179 C 202.483 204.179,202.265 203.953,202.193 203.677 C 202.116 203.381,201.951 203.244,201.791 203.343 C 201.631 203.442,201.466 203.306,201.389 203.009 C 201.317 202.733,201.068 202.507,200.836 202.507 C 200.604 202.507,200.358 202.293,200.289 202.030 C 200.193 201.662,199.963 201.552,199.292 201.552 C 198.771 201.552,198.479 201.456,198.567 201.313 C 198.648 201.182,198.595 201.075,198.448 201.075 C 198.301 201.075,198.247 200.967,198.328 200.836 C 198.425 200.679,196.659 200.597,193.208 200.597 C 190.311 200.597,187.927 200.651,187.910 200.716 M218.099 201.075 C 218.001 201.449,217.773 201.552,217.047 201.552 C 216.537 201.552,216.132 201.633,216.148 201.731 C 216.224 202.217,216.077 202.463,215.642 202.577 C 215.262 202.676,215.164 202.584,215.164 202.127 L 215.164 201.552 211.945 201.552 L 208.726 201.552 208.726 213.015 L 208.726 224.478 211.945 224.478 L 215.164 224.478 215.164 216.605 C 215.164 209.737,215.210 208.749,215.519 208.868 C 215.753 208.957,215.957 208.787,216.116 208.368 C 216.251 208.013,216.470 207.802,216.613 207.890 C 216.754 207.977,216.927 207.823,216.999 207.546 C 217.083 207.226,217.323 207.045,217.662 207.045 C 217.955 207.045,218.389 206.830,218.627 206.567 C 219.274 205.852,221.738 205.870,221.926 206.591 C 221.998 206.867,222.172 207.022,222.312 206.935 C 222.452 206.849,222.567 206.938,222.567 207.134 C 222.567 207.330,222.782 207.558,223.045 207.642 C 223.509 207.789,223.523 208.016,223.552 215.777 C 223.569 220.168,223.596 223.896,223.612 224.060 C 223.634 224.282,224.438 224.358,226.746 224.358 L 229.851 224.358 229.913 214.616 C 229.954 208.172,229.891 204.716,229.726 204.407 C 229.538 204.057,229.552 203.939,229.783 203.937 C 230.005 203.934,229.994 203.872,229.743 203.714 C 229.552 203.593,229.310 203.547,229.205 203.612 C 229.101 203.677,229.015 203.455,229.015 203.119 C 229.015 202.667,228.890 202.507,228.537 202.507 C 228.219 202.507,228.060 202.348,228.060 202.030 C 228.060 201.686,227.900 201.552,227.491 201.552 C 227.122 201.552,226.877 201.384,226.796 201.075 C 226.678 200.620,226.471 200.597,222.448 200.597 C 218.425 200.597,218.218 200.620,218.099 201.075 M266.985 201.075 C 266.778 201.362,266.367 201.552,265.955 201.552 C 265.470 201.552,265.232 201.692,265.144 202.030 C 265.075 202.293,264.829 202.507,264.597 202.507 C 264.365 202.507,264.116 202.733,264.044 203.009 C 263.972 203.285,263.806 203.445,263.675 203.364 C 263.544 203.283,263.370 203.428,263.289 203.686 C 263.207 203.944,262.930 204.221,262.674 204.302 C 262.418 204.384,262.209 204.604,262.209 204.792 C 262.209 204.980,262.094 205.134,261.954 205.134 C 261.804 205.134,261.761 205.356,261.850 205.672 C 261.969 206.092,261.947 206.131,261.751 205.851 C 261.613 205.654,261.485 205.573,261.466 205.672 C 261.448 205.770,261.406 205.958,261.373 206.090 C 261.340 206.221,261.300 206.704,261.284 207.164 C 261.260 207.820,261.155 208.000,260.793 208.000 C 260.055 208.000,260.031 217.766,260.769 217.959 C 261.085 218.042,261.268 218.304,261.295 218.714 C 261.317 219.060,261.348 219.505,261.363 219.702 C 261.405 220.243,261.736 220.682,261.987 220.527 C 262.109 220.452,262.209 220.610,262.209 220.879 C 262.209 221.149,262.424 221.503,262.687 221.667 C 262.949 221.831,263.164 222.101,263.164 222.266 C 263.164 222.432,263.379 222.567,263.642 222.567 C 263.960 222.567,264.119 222.726,264.119 223.045 C 264.119 223.363,264.279 223.522,264.597 223.522 C 264.915 223.522,265.075 223.682,265.075 224.000 C 265.075 224.263,265.155 224.465,265.254 224.449 C 266.046 224.324,266.733 224.536,266.863 224.946 C 267.004 225.392,267.257 225.414,272.346 225.414 C 277.444 225.414,277.686 225.393,277.803 224.946 C 277.911 224.532,278.628 224.318,279.463 224.449 C 279.561 224.465,279.642 224.263,279.642 224.000 C 279.642 223.682,279.801 223.522,280.119 223.522 C 280.438 223.522,280.597 223.363,280.597 223.045 C 280.597 222.726,280.756 222.567,281.075 222.567 C 281.337 222.567,281.552 222.460,281.552 222.328 C 281.552 222.197,281.767 221.875,282.030 221.612 C 282.293 221.349,282.507 220.977,282.507 220.784 C 282.507 220.585,282.649 220.487,282.835 220.559 C 283.015 220.628,283.229 220.511,283.310 220.300 C 283.411 220.036,283.365 219.971,283.161 220.093 C 282.933 220.231,282.929 220.193,283.144 219.926 C 283.448 219.550,283.463 219.491,283.463 218.655 C 283.463 218.298,283.631 218.042,283.913 217.968 C 284.335 217.858,284.364 217.547,284.374 213.067 C 284.385 208.275,284.298 207.182,283.925 207.412 C 283.659 207.577,283.268 206.795,283.353 206.268 C 283.390 206.037,283.323 205.909,283.203 205.983 C 283.083 206.057,282.985 205.896,282.985 205.626 C 282.985 205.356,282.878 205.134,282.746 205.134 C 282.615 205.134,282.507 204.980,282.507 204.792 C 282.507 204.604,282.304 204.386,282.056 204.307 C 281.807 204.228,281.546 203.941,281.475 203.670 C 281.399 203.379,281.234 203.245,281.075 203.343 C 280.915 203.442,280.750 203.306,280.672 203.009 C 280.600 202.733,280.351 202.507,280.119 202.507 C 279.887 202.507,279.641 202.293,279.573 202.030 C 279.482 201.684,279.247 201.552,278.717 201.552 C 278.231 201.552,277.901 201.392,277.731 201.075 C 277.488 200.620,277.231 200.597,272.403 200.597 C 267.603 200.597,267.311 200.623,266.985 201.075 M297.433 201.075 C 297.321 201.426,297.072 201.552,296.489 201.552 C 295.898 201.552,295.666 201.673,295.573 202.030 C 295.498 202.316,295.247 202.507,294.948 202.507 C 294.607 202.507,294.448 202.355,294.448 202.030 C 294.448 201.576,294.289 201.552,291.233 201.552 L 288.018 201.552 288.005 213.015 L 287.992 224.478 291.220 224.478 L 294.448 224.478 294.448 216.605 C 294.448 209.737,294.493 208.749,294.803 208.868 C 295.036 208.957,295.240 208.787,295.399 208.368 C 295.532 208.019,295.736 207.791,295.853 207.864 C 295.970 207.936,296.121 207.781,296.189 207.520 C 296.270 207.209,296.515 207.045,296.896 207.045 C 297.216 207.045,297.677 206.825,297.920 206.557 C 298.477 205.941,301.014 205.950,301.016 206.567 C 301.016 206.764,301.231 206.930,301.493 206.937 C 301.756 206.943,301.945 207.070,301.915 207.220 C 301.885 207.371,302.073 207.561,302.333 207.643 C 302.792 207.789,302.806 208.031,302.806 216.012 L 302.806 224.230 303.343 224.363 C 303.639 224.437,305.063 224.466,306.507 224.428 L 309.134 224.358 309.187 214.154 C 309.238 204.218,309.227 203.943,308.769 203.698 C 308.510 203.559,308.299 203.235,308.299 202.977 C 308.299 202.667,308.136 202.507,307.821 202.507 C 307.502 202.507,307.343 202.348,307.343 202.030 C 307.343 201.733,307.184 201.552,306.923 201.552 C 306.692 201.552,306.369 201.337,306.205 201.075 C 305.925 200.627,305.648 200.597,301.745 200.597 C 297.794 200.597,297.577 200.621,297.433 201.075 M194.866 206.420 C 194.866 206.602,195.054 206.816,195.284 206.897 C 196.106 207.185,197.273 208.191,196.959 208.340 C 196.793 208.418,196.899 208.438,197.194 208.383 C 197.490 208.328,197.691 208.354,197.640 208.440 C 197.457 208.754,197.964 209.672,198.321 209.672 C 198.963 209.672,198.854 216.034,198.209 216.239 C 197.946 216.322,197.731 216.591,197.731 216.836 C 197.731 217.081,197.515 217.350,197.250 217.434 C 196.986 217.518,196.831 217.686,196.906 217.808 C 196.981 217.930,196.887 218.030,196.696 218.030 C 196.506 218.030,196.287 218.193,196.211 218.392 C 196.134 218.591,195.801 218.857,195.469 218.983 C 195.137 219.109,194.866 219.376,194.866 219.576 C 194.866 219.870,194.520 219.940,193.075 219.940 C 191.443 219.940,191.284 219.898,191.284 219.463 C 191.284 219.091,191.124 218.985,190.567 218.985 C 190.173 218.985,189.851 218.871,189.851 218.732 C 189.851 218.593,189.985 218.560,190.149 218.659 C 190.349 218.779,190.339 218.703,190.117 218.431 C 189.936 218.207,189.613 218.052,189.401 218.086 C 189.159 218.126,189.027 217.993,189.048 217.731 C 189.066 217.501,188.932 217.313,188.750 217.313 C 188.567 217.313,188.418 217.106,188.418 216.852 C 188.418 216.598,188.203 216.322,187.940 216.239 C 187.296 216.034,187.186 209.672,187.827 209.672 C 188.027 209.672,188.293 209.402,188.419 209.073 C 188.544 208.744,188.769 208.502,188.920 208.536 C 189.071 208.569,189.243 208.436,189.302 208.239 C 189.398 207.920,189.379 207.920,189.134 208.239 C 188.890 208.557,188.870 208.557,188.957 208.239 C 189.011 208.042,189.261 207.843,189.512 207.798 C 189.764 207.752,190.078 207.602,190.209 207.464 C 190.371 207.294,190.357 207.265,190.166 207.372 C 190.011 207.459,189.827 207.439,189.758 207.327 C 189.689 207.216,189.789 207.106,189.981 207.085 C 190.172 207.063,190.488 207.027,190.683 207.005 C 190.878 206.983,191.100 206.768,191.177 206.527 C 191.358 205.958,194.866 205.855,194.866 206.420 M247.012 206.593 C 247.206 206.870,247.468 207.033,247.595 206.955 C 247.721 206.876,248.120 207.045,248.481 207.329 C 248.842 207.613,249.366 207.862,249.644 207.883 C 250.139 207.919,250.151 208.019,250.214 212.975 L 250.278 218.030 249.648 218.030 C 249.243 218.030,248.764 218.306,248.306 218.806 C 247.914 219.233,247.651 219.471,247.720 219.335 C 247.789 219.199,247.638 219.087,247.385 219.087 C 247.132 219.087,246.864 219.279,246.790 219.514 C 246.651 219.950,243.542 220.192,243.610 219.761 C 243.705 219.164,243.506 218.985,242.746 218.985 C 242.141 218.985,241.910 218.880,241.910 218.605 C 241.910 218.395,241.696 218.168,241.433 218.099 C 241.076 218.006,240.955 217.773,240.955 217.182 C 240.955 216.600,240.829 216.350,240.478 216.239 C 240.032 216.097,240.000 215.877,240.000 212.907 C 240.000 209.928,240.030 209.719,240.478 209.602 C 240.820 209.513,240.955 209.277,240.955 208.767 C 240.955 208.257,241.090 208.020,241.433 207.931 C 241.696 207.862,241.910 207.635,241.910 207.425 C 241.910 207.162,242.130 207.045,242.625 207.045 C 243.081 207.045,243.447 206.872,243.638 206.567 C 244.082 205.855,246.508 205.873,247.012 206.593 M274.639 206.768 C 274.966 207.142,275.477 207.577,275.773 207.736 C 276.072 207.895,276.239 208.142,276.148 208.288 C 276.040 208.464,276.159 208.507,276.500 208.418 C 276.784 208.344,276.974 208.354,276.924 208.440 C 276.741 208.754,277.248 209.672,277.604 209.672 C 278.246 209.672,278.138 216.034,277.493 216.239 C 277.230 216.322,277.015 216.544,277.015 216.733 C 277.015 217.123,276.180 218.030,275.821 218.030 C 275.543 218.030,275.499 218.421,275.761 218.568 C 275.860 218.623,275.798 218.632,275.624 218.588 C 275.450 218.545,275.146 218.671,274.948 218.869 C 274.750 219.066,274.490 219.167,274.369 219.093 C 274.248 219.018,274.149 219.178,274.149 219.449 C 274.149 220.190,270.692 220.203,270.498 219.463 C 270.420 219.163,270.172 218.985,269.833 218.985 C 269.536 218.985,269.360 218.919,269.441 218.837 C 269.648 218.631,268.983 218.007,268.640 218.085 C 268.485 218.120,268.310 217.988,268.250 217.791 C 268.155 217.473,268.171 217.473,268.396 217.791 C 268.590 218.065,268.650 218.074,268.653 217.828 C 268.655 217.652,268.442 217.451,268.179 217.383 C 267.916 217.314,267.701 217.063,267.701 216.824 C 267.701 216.586,267.487 216.322,267.224 216.239 C 266.580 216.034,266.470 209.672,267.110 209.672 C 267.311 209.672,267.577 209.402,267.702 209.073 C 267.827 208.744,268.053 208.502,268.204 208.536 C 268.354 208.569,268.526 208.436,268.585 208.239 C 268.681 207.920,268.665 207.920,268.440 208.239 C 268.262 208.490,268.185 208.506,268.183 208.293 C 268.181 208.125,268.454 207.884,268.790 207.756 C 269.163 207.614,269.335 207.415,269.231 207.247 C 269.129 207.082,269.165 207.035,269.320 207.131 C 269.462 207.219,269.648 207.180,269.731 207.045 C 269.815 206.909,269.991 206.864,270.122 206.946 C 270.253 207.027,270.420 206.867,270.492 206.591 C 270.720 205.720,273.835 205.853,274.639 206.768 " stroke="none" fill="#047c84" fill-rule="evenodd"></path><path id="path1" d="M83.343 29.465 C 83.343 29.687,82.911 29.850,82.030 29.960 C 81.128 30.073,80.716 30.231,80.716 30.465 C 80.716 30.699,80.436 30.807,79.821 30.809 C 78.574 30.814,77.851 31.042,77.851 31.431 C 77.851 31.613,77.679 31.761,77.470 31.761 C 77.261 31.761,77.036 31.966,76.970 32.217 C 76.905 32.467,76.646 32.726,76.396 32.791 C 76.145 32.857,75.940 33.082,75.940 33.291 C 75.940 33.500,75.779 33.672,75.582 33.672 C 75.383 33.672,75.224 33.884,75.224 34.149 C 75.224 34.468,75.065 34.627,74.746 34.627 C 74.428 34.627,74.269 34.786,74.269 35.104 C 74.269 35.423,74.109 35.582,73.791 35.582 C 73.473 35.582,73.313 35.741,73.313 36.060 C 73.313 36.378,73.154 36.537,72.836 36.537 C 72.452 36.537,72.358 36.697,72.358 37.345 C 72.358 37.952,72.239 38.184,71.881 38.278 C 71.515 38.374,71.403 38.604,71.403 39.261 C 71.403 39.836,71.293 40.119,71.070 40.119 C 70.504 40.119,70.448 40.701,70.448 46.567 C 70.448 52.433,70.504 53.015,71.070 53.015 C 71.293 53.015,71.403 53.299,71.403 53.873 C 71.403 54.530,71.515 54.761,71.881 54.856 C 72.239 54.950,72.358 55.182,72.358 55.789 C 72.358 56.438,72.452 56.597,72.836 56.597 C 73.154 56.597,73.313 56.756,73.313 57.075 C 73.313 57.393,73.473 57.552,73.791 57.552 C 74.109 57.552,74.269 57.711,74.269 58.030 C 74.269 58.348,74.428 58.507,74.746 58.507 C 75.065 58.507,75.224 58.667,75.224 58.985 C 75.224 59.248,75.373 59.463,75.554 59.463 C 75.736 59.463,75.941 59.678,76.009 59.940 C 76.078 60.203,76.293 60.418,76.487 60.418 C 76.681 60.418,76.896 60.633,76.965 60.896 C 77.060 61.261,77.290 61.373,77.948 61.373 C 78.647 61.373,78.806 61.462,78.806 61.851 C 78.806 62.249,78.965 62.328,79.761 62.328 C 80.451 62.328,80.716 62.428,80.716 62.687 C 80.716 62.961,81.018 63.045,82.002 63.045 C 83.087 63.045,83.307 63.119,83.412 63.522 C 83.530 63.973,83.738 64.000,87.142 64.000 C 90.587 64.000,90.746 63.979,90.746 63.522 C 90.746 63.087,90.905 63.045,92.537 63.045 C 93.896 63.045,94.328 62.966,94.328 62.717 C 94.328 62.519,94.707 62.329,95.284 62.237 C 95.902 62.138,96.239 61.958,96.239 61.729 C 96.239 61.532,96.453 61.373,96.716 61.373 C 97.035 61.373,97.194 61.214,97.194 60.896 C 97.194 60.577,97.353 60.418,97.672 60.418 C 97.990 60.418,98.149 60.259,98.149 59.940 C 98.149 59.557,98.308 59.463,98.960 59.463 C 99.815 59.463,100.060 59.167,100.060 58.130 C 100.060 57.711,100.191 57.552,100.537 57.552 C 100.856 57.552,101.015 57.393,101.015 57.075 C 101.015 56.809,101.174 56.597,101.373 56.597 C 101.623 56.597,101.731 56.345,101.731 55.761 C 101.731 55.085,101.822 54.925,102.209 54.925 C 102.607 54.925,102.687 54.766,102.687 53.970 C 102.687 53.174,102.766 53.015,103.164 53.015 C 103.608 53.015,103.642 52.856,103.642 50.774 C 103.642 48.734,103.685 48.522,104.119 48.408 C 104.544 48.297,104.597 48.083,104.597 46.470 C 104.597 44.816,104.555 44.657,104.119 44.657 C 103.675 44.657,103.642 44.498,103.642 42.388 C 103.642 40.279,103.608 40.119,103.164 40.119 C 102.766 40.119,102.687 39.960,102.687 39.164 C 102.687 38.368,102.607 38.209,102.209 38.209 C 101.822 38.209,101.731 38.050,101.731 37.373 C 101.731 36.789,101.623 36.537,101.373 36.537 C 101.174 36.537,101.015 36.325,101.015 36.060 C 101.015 35.741,100.856 35.582,100.537 35.582 C 100.191 35.582,100.060 35.423,100.060 35.005 C 100.060 33.968,99.815 33.672,98.960 33.672 C 98.308 33.672,98.149 33.578,98.149 33.194 C 98.149 32.876,97.990 32.716,97.672 32.716 C 97.353 32.716,97.194 32.557,97.194 32.239 C 97.194 31.920,97.035 31.761,96.716 31.761 C 96.453 31.761,96.239 31.602,96.239 31.406 C 96.239 31.176,95.902 30.997,95.284 30.898 C 94.758 30.814,94.328 30.610,94.328 30.445 C 94.328 30.247,93.725 30.089,92.537 29.978 C 91.232 29.855,90.746 29.718,90.746 29.472 C 90.746 29.195,90.077 29.134,87.045 29.134 C 84.051 29.134,83.343 29.198,83.343 29.465 M333.134 29.472 C 333.134 29.718,332.649 29.855,331.343 29.978 C 330.059 30.098,329.552 30.239,329.552 30.476 C 329.552 30.696,329.265 30.806,328.694 30.806 C 328.037 30.806,327.807 30.918,327.711 31.284 C 327.642 31.548,327.385 31.761,327.136 31.761 C 326.846 31.761,326.687 31.930,326.687 32.239 C 326.687 32.625,326.527 32.716,325.851 32.716 C 325.174 32.716,325.015 32.807,325.015 33.194 C 325.015 33.512,324.856 33.672,324.537 33.672 C 324.219 33.672,324.060 33.831,324.060 34.149 C 324.060 34.468,323.900 34.627,323.582 34.627 C 323.184 34.627,323.104 34.786,323.104 35.582 C 323.104 36.358,323.020 36.537,322.655 36.537 C 322.406 36.537,322.149 36.751,322.080 37.015 C 322.011 37.278,321.784 37.493,321.575 37.493 C 321.301 37.493,321.194 37.720,321.194 38.301 C 321.194 38.908,321.075 39.140,320.716 39.233 C 320.292 39.344,320.239 39.559,320.239 41.172 C 320.239 42.562,320.161 42.985,319.906 42.985 C 319.381 42.985,319.284 43.548,319.284 46.567 C 319.284 49.587,319.381 50.149,319.906 50.149 C 320.161 50.149,320.239 50.572,320.239 51.963 C 320.239 53.575,320.292 53.790,320.716 53.901 C 321.075 53.995,321.194 54.227,321.194 54.834 C 321.194 55.483,321.288 55.642,321.672 55.642 C 321.990 55.642,322.149 55.801,322.149 56.119 C 322.149 56.438,322.308 56.597,322.627 56.597 C 323.025 56.597,323.104 56.756,323.104 57.552 C 323.104 58.348,323.184 58.507,323.582 58.507 C 323.900 58.507,324.060 58.667,324.060 58.985 C 324.060 59.294,324.219 59.463,324.509 59.463 C 324.758 59.463,325.015 59.676,325.084 59.940 C 325.175 60.288,325.410 60.418,325.948 60.418 C 326.527 60.418,326.687 60.521,326.687 60.896 C 326.687 61.214,326.846 61.373,327.164 61.373 C 327.427 61.373,327.642 61.523,327.642 61.706 C 327.642 62.091,328.150 62.328,328.975 62.328 C 329.329 62.328,329.552 62.467,329.552 62.687 C 329.552 62.973,329.910 63.045,331.343 63.045 C 332.975 63.045,333.134 63.087,333.134 63.522 C 333.134 63.979,333.294 64.000,336.836 64.000 C 340.378 64.000,340.537 63.979,340.537 63.522 C 340.537 63.098,340.697 63.045,341.970 63.045 C 343.085 63.045,343.403 62.965,343.403 62.687 C 343.403 62.436,343.655 62.328,344.239 62.328 C 344.915 62.328,345.075 62.237,345.075 61.851 C 345.075 61.453,345.234 61.373,346.030 61.373 C 346.826 61.373,346.985 61.294,346.985 60.896 C 346.985 60.577,347.144 60.418,347.463 60.418 C 347.781 60.418,347.940 60.259,347.940 59.940 C 347.940 59.622,348.100 59.463,348.418 59.463 C 348.736 59.463,348.896 59.303,348.896 58.985 C 348.896 58.667,349.055 58.507,349.373 58.507 C 349.682 58.507,349.851 58.348,349.851 58.058 C 349.851 57.809,350.064 57.552,350.328 57.483 C 350.591 57.414,350.806 57.187,350.806 56.978 C 350.806 56.768,350.967 56.597,351.164 56.597 C 351.413 56.597,351.522 56.347,351.522 55.777 C 351.522 55.167,351.645 54.919,352.000 54.806 C 352.400 54.679,352.478 54.445,352.478 53.357 C 352.478 52.219,352.536 52.060,352.955 52.060 C 353.419 52.060,353.433 51.900,353.433 46.567 C 353.433 41.234,353.419 41.075,352.955 41.075 C 352.535 41.075,352.478 40.915,352.478 39.739 C 352.478 38.604,352.406 38.384,352.000 38.278 C 351.641 38.184,351.522 37.952,351.522 37.345 C 351.522 36.786,351.412 36.537,351.164 36.537 C 350.967 36.537,350.806 36.366,350.806 36.157 C 350.806 35.947,350.591 35.720,350.328 35.651 C 350.064 35.582,349.851 35.326,349.851 35.077 C 349.851 34.786,349.682 34.627,349.373 34.627 C 349.055 34.627,348.896 34.468,348.896 34.149 C 348.896 33.831,348.736 33.672,348.418 33.672 C 348.100 33.672,347.940 33.512,347.940 33.194 C 347.940 32.876,347.781 32.716,347.463 32.716 C 347.144 32.716,346.985 32.557,346.985 32.239 C 346.985 31.841,346.826 31.761,346.030 31.761 C 345.234 31.761,345.075 31.682,345.075 31.284 C 345.075 30.897,344.915 30.806,344.239 30.806 C 343.681 30.806,343.403 30.695,343.403 30.471 C 343.403 30.240,342.961 30.085,341.970 29.970 C 340.979 29.855,340.537 29.701,340.537 29.469 C 340.537 29.196,339.852 29.134,336.836 29.134 C 333.804 29.134,333.134 29.195,333.134 29.472 M24.179 30.023 C 23.151 30.151,23.005 32.716,24.026 32.716 C 24.269 32.716,24.358 33.064,24.358 34.014 C 24.358 35.101,24.435 35.336,24.836 35.463 C 25.230 35.588,25.313 35.824,25.313 36.815 C 25.313 37.814,25.393 38.036,25.791 38.140 C 26.195 38.245,26.269 38.465,26.269 39.573 C 26.269 40.680,26.342 40.900,26.746 41.005 C 27.149 41.111,27.224 41.331,27.224 42.416 C 27.224 43.542,27.283 43.701,27.701 43.701 C 28.122 43.701,28.179 43.861,28.179 45.037 C 28.179 46.172,28.251 46.392,28.657 46.498 C 29.060 46.603,29.134 46.824,29.134 47.908 C 29.134 48.892,29.218 49.194,29.493 49.194 C 29.728 49.194,29.851 49.430,29.851 49.881 C 29.851 51.067,30.136 52.060,30.478 52.060 C 30.712 52.060,30.806 52.400,30.806 53.252 C 30.806 54.185,30.910 54.508,31.284 54.742 C 31.655 54.974,31.761 55.299,31.761 56.199 C 31.761 57.157,31.844 57.380,32.239 57.483 C 32.613 57.581,32.716 57.809,32.716 58.535 C 32.716 59.303,32.798 59.463,33.194 59.463 C 33.615 59.463,33.672 59.622,33.672 60.798 C 33.672 61.933,33.743 62.153,34.149 62.259 C 34.412 62.328,34.627 62.533,34.627 62.714 C 34.627 62.979,35.265 63.045,37.851 63.045 L 41.075 63.045 41.075 61.759 C 41.075 60.674,41.149 60.454,41.552 60.349 C 41.958 60.243,42.030 60.023,42.030 58.888 C 42.030 57.860,42.112 57.552,42.388 57.552 C 42.675 57.552,42.746 57.194,42.746 55.761 C 42.746 54.129,42.789 53.970,43.224 53.970 C 43.662 53.970,43.701 53.811,43.701 52.060 L 43.701 50.149 44.657 50.149 L 45.612 50.149 45.612 51.582 C 45.612 52.856,45.665 53.015,46.090 53.015 C 46.525 53.015,46.567 53.174,46.567 54.806 C 46.567 56.438,46.610 56.597,47.045 56.597 C 47.480 56.597,47.522 56.756,47.522 58.410 C 47.522 60.023,47.575 60.238,48.000 60.349 C 48.403 60.454,48.478 60.674,48.478 61.759 L 48.478 63.045 52.060 63.045 L 55.642 63.045 55.642 61.731 C 55.642 60.577,55.700 60.418,56.119 60.418 C 56.544 60.418,56.597 60.259,56.597 58.985 C 56.597 57.711,56.650 57.552,57.075 57.552 C 57.493 57.552,57.552 57.393,57.552 56.267 C 57.552 55.182,57.627 54.962,58.030 54.856 C 58.436 54.750,58.507 54.530,58.507 53.395 C 58.507 52.219,58.564 52.060,58.985 52.060 C 59.404 52.060,59.463 51.900,59.463 50.774 C 59.463 49.689,59.537 49.469,59.940 49.364 C 60.345 49.258,60.418 49.038,60.418 47.931 C 60.418 46.824,60.491 46.604,60.896 46.498 C 61.301 46.392,61.373 46.172,61.373 45.037 C 61.373 43.861,61.430 43.701,61.851 43.701 C 62.270 43.701,62.328 43.542,62.328 42.388 C 62.328 41.380,62.412 41.075,62.687 41.075 C 62.965 41.075,63.045 40.756,63.045 39.642 C 63.045 38.368,63.098 38.209,63.522 38.209 C 63.942 38.209,64.000 38.050,64.000 36.896 C 64.000 35.741,64.058 35.582,64.478 35.582 C 64.902 35.582,64.955 35.423,64.955 34.149 C 64.955 32.876,65.008 32.716,65.433 32.716 C 66.367 32.716,66.117 30.191,65.164 30.000 C 64.194 29.806,60.082 29.808,58.660 30.003 L 57.552 30.154 57.552 31.435 C 57.552 32.371,57.463 32.716,57.220 32.716 C 56.779 32.716,56.597 33.245,56.597 34.527 C 56.597 35.306,56.503 35.582,56.239 35.582 C 55.965 35.582,55.881 35.884,55.881 36.868 C 55.881 37.952,55.806 38.173,55.403 38.278 C 54.978 38.389,54.925 38.604,54.925 40.216 C 54.925 41.871,54.883 42.030,54.448 42.030 C 54.028 42.030,53.970 42.189,53.970 43.343 C 53.970 44.498,53.912 44.657,53.493 44.657 C 53.068 44.657,53.015 44.816,53.015 46.090 L 53.015 47.522 52.060 47.522 L 51.104 47.522 51.104 45.731 C 51.104 44.100,51.062 43.940,50.627 43.940 C 50.202 43.940,50.149 43.781,50.149 42.507 C 50.149 41.234,50.096 41.075,49.672 41.075 C 49.237 41.075,49.194 40.915,49.194 39.295 C 49.194 37.998,49.101 37.464,48.851 37.324 C 48.644 37.208,48.479 36.662,48.433 35.939 L 48.358 34.746 44.716 34.680 L 41.075 34.614 41.075 36.412 C 41.075 38.050,41.032 38.209,40.597 38.209 C 40.174 38.209,40.119 38.368,40.119 39.614 C 40.119 40.818,40.051 41.037,39.642 41.144 C 39.222 41.254,39.164 41.470,39.164 42.935 C 39.164 44.400,39.107 44.616,38.687 44.726 C 38.281 44.832,38.209 45.052,38.209 46.187 C 38.209 47.180,38.122 47.522,37.871 47.522 C 37.685 47.522,37.478 47.657,37.412 47.821 C 37.346 47.985,37.283 47.770,37.273 47.343 C 37.258 46.733,37.152 46.567,36.776 46.567 C 36.358 46.567,36.299 46.408,36.299 45.279 C 36.299 44.355,36.197 43.953,35.940 43.854 C 35.686 43.756,35.582 43.360,35.582 42.493 C 35.582 41.470,35.504 41.248,35.104 41.144 C 34.700 41.038,34.627 40.818,34.627 39.711 C 34.627 38.604,34.554 38.384,34.149 38.278 C 33.746 38.173,33.672 37.952,33.672 36.868 C 33.672 35.741,33.612 35.582,33.194 35.582 C 32.758 35.582,32.716 35.423,32.716 33.769 C 32.716 32.156,32.664 31.941,32.239 31.830 C 31.885 31.738,31.761 31.505,31.761 30.929 C 31.761 29.915,28.344 29.507,24.179 30.023 M115.164 30.009 C 114.977 30.084,114.866 30.612,114.866 31.423 C 114.866 32.557,114.807 32.716,114.388 32.716 C 113.931 32.716,113.910 32.876,113.910 36.418 C 113.910 39.960,113.890 40.119,113.433 40.119 C 112.976 40.119,112.955 40.279,112.955 43.821 C 112.955 47.363,112.935 47.522,112.478 47.522 C 112.021 47.522,112.000 47.682,112.000 51.224 C 112.000 54.766,111.979 54.925,111.522 54.925 C 111.064 54.925,111.045 55.085,111.045 58.985 L 111.045 63.045 114.746 63.045 L 118.448 63.045 118.448 60.299 C 118.448 57.711,118.475 57.552,118.925 57.552 C 119.382 57.552,119.403 57.393,119.403 53.851 C 119.403 50.846,119.466 50.149,119.736 50.149 C 120.229 50.149,120.358 49.600,120.358 47.503 C 120.358 45.771,120.398 45.612,120.836 45.612 C 121.234 45.612,121.313 45.771,121.313 46.567 C 121.313 47.257,121.413 47.522,121.672 47.522 C 121.924 47.522,122.030 47.777,122.030 48.381 C 122.030 49.038,122.142 49.268,122.507 49.364 C 122.866 49.457,122.985 49.689,122.985 50.297 C 122.985 50.945,123.079 51.104,123.463 51.104 C 123.861 51.104,123.940 51.264,123.940 52.060 C 123.940 52.856,124.020 53.015,124.418 53.015 C 124.816 53.015,124.896 53.174,124.896 53.970 C 124.896 54.766,124.975 54.925,125.373 54.925 C 125.793 54.925,125.851 55.085,125.851 56.239 C 125.851 57.393,125.909 57.552,126.328 57.552 C 126.726 57.552,126.806 57.711,126.806 58.507 L 126.806 59.463 130.507 59.463 C 134.050 59.463,134.209 59.442,134.209 58.985 C 134.209 58.720,134.368 58.507,134.567 58.507 C 134.826 58.507,134.925 58.242,134.925 57.552 C 134.925 56.756,135.005 56.597,135.403 56.597 C 135.788 56.597,135.881 56.438,135.881 55.777 C 135.881 55.167,136.003 54.919,136.358 54.806 C 136.709 54.695,136.836 54.445,136.836 53.863 C 136.836 53.271,136.957 53.039,137.313 52.946 C 137.676 52.851,137.791 52.620,137.791 51.991 C 137.791 51.361,137.907 51.130,138.269 51.035 C 138.666 50.931,138.746 50.710,138.746 49.722 C 138.746 48.734,138.827 48.512,139.224 48.408 C 139.590 48.313,139.701 48.083,139.701 47.425 C 139.701 46.799,139.804 46.567,140.082 46.567 C 140.291 46.567,140.519 46.352,140.588 46.090 C 140.656 45.827,140.861 45.612,141.043 45.612 C 141.309 45.612,141.373 46.307,141.373 49.216 C 141.373 52.620,141.400 52.828,141.851 52.946 C 142.304 53.064,142.328 53.271,142.328 56.981 C 142.328 60.633,142.360 60.911,142.806 61.190 C 143.125 61.389,143.284 61.747,143.284 62.266 L 143.284 63.045 146.985 63.045 L 150.687 63.045 150.687 60.873 C 150.687 58.902,150.642 58.690,150.209 58.577 C 149.758 58.459,149.731 58.251,149.731 54.875 C 149.731 51.499,149.705 51.292,149.254 51.174 C 148.803 51.056,148.776 50.848,148.776 47.472 C 148.776 44.096,148.749 43.889,148.299 43.771 C 147.845 43.652,147.821 43.445,147.821 39.614 C 147.821 36.189,147.767 35.582,147.463 35.582 C 147.165 35.582,147.104 35.121,147.104 32.868 L 147.104 30.154 145.997 30.003 C 142.312 29.498,139.701 29.893,139.701 30.957 C 139.701 31.602,139.607 31.761,139.224 31.761 C 138.826 31.761,138.746 31.920,138.746 32.716 C 138.746 33.512,138.667 33.672,138.269 33.672 C 137.871 33.672,137.791 33.831,137.791 34.627 C 137.791 35.423,137.711 35.582,137.313 35.582 C 136.929 35.582,136.836 35.741,136.836 36.402 C 136.836 37.012,136.714 37.260,136.358 37.373 C 136.003 37.486,135.881 37.734,135.881 38.344 C 135.881 38.886,135.768 39.164,135.548 39.164 C 135.163 39.164,134.925 39.673,134.925 40.497 C 134.925 40.851,134.787 41.075,134.567 41.075 C 134.308 41.075,134.209 41.340,134.209 42.030 C 134.209 42.826,134.129 42.985,133.731 42.985 C 133.312 42.985,133.254 43.144,133.254 44.299 C 133.254 45.453,133.196 45.612,132.776 45.612 C 132.378 45.612,132.299 45.771,132.299 46.567 C 132.299 47.363,132.219 47.522,131.821 47.522 C 131.423 47.522,131.343 47.682,131.343 48.478 C 131.343 49.274,131.264 49.433,130.866 49.433 C 130.547 49.433,130.388 49.274,130.388 48.955 C 130.388 48.637,130.229 48.478,129.910 48.478 C 129.512 48.478,129.433 48.318,129.433 47.522 C 129.433 46.726,129.353 46.567,128.955 46.567 C 128.536 46.567,128.478 46.408,128.478 45.254 C 128.478 44.282,128.390 43.940,128.140 43.940 C 127.933 43.940,127.741 43.572,127.642 42.985 C 127.543 42.398,127.351 42.030,127.143 42.030 C 126.915 42.030,126.806 41.752,126.806 41.172 C 126.806 40.514,126.694 40.284,126.328 40.189 C 125.966 40.094,125.851 39.863,125.851 39.233 C 125.851 38.604,125.735 38.373,125.373 38.278 C 125.014 38.184,124.896 37.952,124.896 37.345 C 124.896 36.697,124.801 36.537,124.418 36.537 C 124.020 36.537,123.940 36.378,123.940 35.582 C 123.940 34.786,123.861 34.627,123.463 34.627 C 123.065 34.627,122.985 34.468,122.985 33.672 C 122.985 32.876,122.905 32.716,122.507 32.716 C 122.109 32.716,122.030 32.557,122.030 31.761 C 122.030 31.071,121.930 30.806,121.672 30.806 C 121.475 30.806,121.313 30.657,121.313 30.476 C 121.313 29.925,116.312 29.546,115.164 30.009 M159.821 30.023 L 159.045 30.120 159.045 46.582 L 159.045 63.045 170.037 63.045 L 181.029 63.045 180.962 59.881 L 180.896 56.716 173.672 56.653 L 166.448 56.590 166.448 53.370 L 166.448 50.149 172.418 50.149 L 178.388 50.149 178.388 46.925 L 178.388 43.701 172.418 43.701 L 166.448 43.701 166.448 40.123 L 166.448 36.545 173.313 36.481 L 180.179 36.418 180.246 33.283 C 180.311 30.197,180.304 30.147,179.768 30.003 C 179.181 29.846,161.104 29.864,159.821 30.023 M190.030 30.022 L 189.373 30.121 189.373 46.583 L 189.373 63.045 193.075 63.045 L 196.776 63.045 196.776 54.328 C 196.776 45.771,196.785 45.612,197.254 45.612 C 197.572 45.612,197.731 45.771,197.731 46.090 C 197.731 46.408,197.891 46.567,198.209 46.567 C 198.607 46.567,198.687 46.726,198.687 47.522 C 198.687 48.318,198.766 48.478,199.164 48.478 C 199.551 48.478,199.642 48.637,199.642 49.313 C 199.642 49.874,199.753 50.149,199.979 50.149 C 200.186 50.149,200.378 50.517,200.478 51.104 C 200.577 51.692,200.769 52.060,200.976 52.060 C 201.162 52.060,201.313 52.275,201.313 52.537 C 201.313 52.856,201.473 53.015,201.791 53.015 C 202.180 53.015,202.269 53.174,202.269 53.873 C 202.269 54.530,202.380 54.761,202.746 54.856 C 203.105 54.950,203.224 55.182,203.224 55.789 C 203.224 56.438,203.318 56.597,203.701 56.597 C 204.020 56.597,204.179 56.756,204.179 57.075 C 204.179 57.393,204.338 57.552,204.657 57.552 C 205.055 57.552,205.134 57.711,205.134 58.507 C 205.134 59.303,205.214 59.463,205.612 59.463 C 205.997 59.463,206.090 59.622,206.090 60.287 C 206.090 60.740,206.232 61.197,206.406 61.302 C 206.580 61.407,206.792 61.681,206.876 61.910 C 206.961 62.140,207.194 62.328,207.395 62.328 C 207.597 62.328,207.761 62.490,207.761 62.687 C 207.761 62.990,208.332 63.045,211.463 63.045 L 215.164 63.045 215.164 46.586 L 215.164 30.128 213.585 29.959 C 211.232 29.706,207.284 29.944,207.025 30.353 C 206.908 30.536,206.812 34.260,206.810 38.627 C 206.806 45.524,206.759 46.567,206.448 46.567 C 206.228 46.567,206.090 46.344,206.090 45.990 C 206.090 45.165,205.852 44.657,205.467 44.657 C 205.254 44.657,205.134 44.390,205.134 43.918 C 205.134 43.380,205.004 43.145,204.657 43.054 C 204.392 42.985,204.179 42.729,204.179 42.480 C 204.179 42.189,204.010 42.030,203.701 42.030 C 203.303 42.030,203.224 41.871,203.224 41.075 C 203.224 40.279,203.144 40.119,202.746 40.119 C 202.357 40.119,202.269 39.960,202.269 39.261 C 202.269 38.604,202.157 38.374,201.791 38.278 C 201.527 38.209,201.313 37.952,201.313 37.703 C 201.313 37.413,201.144 37.254,200.836 37.254 C 200.449 37.254,200.358 37.095,200.358 36.418 C 200.358 35.834,200.250 35.582,200.000 35.582 C 199.780 35.582,199.642 35.359,199.642 35.005 C 199.642 34.180,199.404 33.672,199.019 33.672 C 198.810 33.672,198.687 33.410,198.687 32.969 C 198.687 32.563,198.503 32.134,198.253 31.954 C 198.014 31.782,197.749 31.454,197.663 31.224 C 197.578 30.994,197.343 30.806,197.142 30.806 C 196.941 30.806,196.776 30.657,196.776 30.476 C 196.776 29.907,192.627 29.628,190.030 30.022 M236.716 30.009 C 236.150 30.237,236.315 34.406,236.896 34.558 C 237.299 34.663,237.373 34.883,237.373 35.968 C 237.373 37.095,237.432 37.254,237.851 37.254 C 238.271 37.254,238.328 37.413,238.328 38.590 C 238.328 39.724,238.400 39.944,238.806 40.050 C 239.209 40.156,239.284 40.376,239.284 41.461 C 239.284 42.444,239.368 42.746,239.642 42.746 C 239.896 42.746,240.001 43.006,240.003 43.642 C 240.008 44.889,240.236 45.612,240.625 45.612 C 240.862 45.612,240.955 45.948,240.955 46.804 C 240.955 47.737,241.059 48.061,241.433 48.294 C 241.804 48.526,241.910 48.851,241.910 49.751 C 241.910 50.710,241.993 50.932,242.388 51.035 C 242.792 51.141,242.866 51.361,242.866 52.468 C 242.866 53.575,242.939 53.795,243.343 53.901 C 243.705 53.996,243.821 54.227,243.821 54.856 C 243.821 55.486,243.936 55.717,244.299 55.811 C 244.702 55.917,244.776 56.137,244.776 57.222 C 244.776 58.348,244.835 58.507,245.254 58.507 C 245.678 58.507,245.731 58.667,245.731 59.940 C 245.731 61.055,245.811 61.373,246.090 61.373 C 246.340 61.373,246.448 61.625,246.448 62.209 L 246.448 63.045 249.644 63.045 C 252.639 63.045,252.848 63.015,252.965 62.567 C 253.033 62.304,253.261 62.090,253.470 62.090 C 253.785 62.090,253.851 61.778,253.851 60.299 C 253.851 58.667,253.893 58.507,254.328 58.507 C 254.763 58.507,254.806 58.348,254.806 56.744 C 254.806 55.182,254.860 54.967,255.284 54.856 C 255.688 54.750,255.761 54.530,255.761 53.423 C 255.761 52.316,255.835 52.096,256.239 51.991 C 256.645 51.884,256.716 51.665,256.716 50.530 C 256.716 49.353,256.773 49.194,257.194 49.194 C 257.619 49.194,257.672 49.353,257.672 50.627 C 257.672 51.900,257.725 52.060,258.149 52.060 C 258.584 52.060,258.627 52.219,258.627 53.851 C 258.627 55.284,258.699 55.642,258.985 55.642 C 259.249 55.642,259.343 55.918,259.343 56.697 C 259.343 57.979,259.525 58.507,259.966 58.507 C 260.220 58.507,260.299 58.924,260.299 60.282 C 260.299 61.848,260.355 62.075,260.776 62.209 C 261.039 62.292,261.254 62.514,261.254 62.703 C 261.254 62.983,261.839 63.045,264.478 63.045 L 267.701 63.045 267.701 62.209 C 267.701 61.532,267.792 61.373,268.179 61.373 C 268.604 61.373,268.657 61.214,268.657 59.940 C 268.657 58.667,268.710 58.507,269.134 58.507 C 269.553 58.507,269.612 58.348,269.612 57.222 C 269.612 56.137,269.687 55.917,270.090 55.811 C 270.494 55.706,270.567 55.486,270.567 54.379 C 270.567 53.271,270.641 53.051,271.045 52.946 C 271.451 52.840,271.522 52.620,271.522 51.485 C 271.522 50.457,271.605 50.149,271.881 50.149 C 272.156 50.149,272.239 49.844,272.239 48.836 C 272.239 47.682,272.297 47.522,272.716 47.522 C 273.141 47.522,273.194 47.363,273.194 46.090 C 273.194 44.816,273.247 44.657,273.672 44.657 C 274.091 44.657,274.149 44.498,274.149 43.343 C 274.149 42.189,274.207 42.030,274.627 42.030 C 275.051 42.030,275.104 41.871,275.104 40.597 C 275.104 39.323,275.158 39.164,275.582 39.164 C 276.001 39.164,276.060 39.005,276.060 37.879 C 276.060 36.794,276.134 36.574,276.537 36.468 C 276.942 36.362,277.015 36.142,277.015 35.035 C 277.015 33.928,277.088 33.708,277.493 33.602 C 278.261 33.401,278.208 30.209,277.433 30.001 C 275.729 29.545,270.567 29.879,270.567 30.445 C 270.567 30.613,270.352 30.806,270.090 30.875 C 269.684 30.981,269.612 31.201,269.612 32.336 C 269.612 33.512,269.555 33.672,269.134 33.672 C 268.711 33.672,268.657 33.831,268.657 35.077 C 268.657 36.281,268.588 36.499,268.179 36.607 C 267.780 36.711,267.701 36.932,267.701 37.948 C 267.701 38.828,267.610 39.164,267.369 39.164 C 266.895 39.164,266.746 39.705,266.746 41.425 C 266.746 42.729,266.683 42.946,266.269 43.054 C 265.870 43.159,265.791 43.380,265.791 44.396 C 265.791 45.318,265.704 45.612,265.433 45.612 C 265.154 45.612,265.075 45.930,265.075 47.045 C 265.075 48.318,265.022 48.478,264.597 48.478 C 264.199 48.478,264.119 48.318,264.119 47.522 C 264.119 46.726,264.040 46.567,263.642 46.567 C 263.207 46.567,263.164 46.408,263.164 44.776 C 263.164 43.144,263.122 42.985,262.687 42.985 C 262.251 42.985,262.209 42.826,262.209 41.172 C 262.209 39.559,262.156 39.344,261.731 39.233 C 261.328 39.128,261.254 38.908,261.254 37.823 C 261.254 36.697,261.195 36.537,260.776 36.537 C 260.378 36.537,260.299 36.378,260.299 35.582 L 260.299 34.627 257.075 34.627 C 254.010 34.627,253.851 34.650,253.851 35.104 C 253.851 35.367,253.703 35.582,253.522 35.582 C 253.147 35.582,252.896 36.599,252.896 38.119 C 252.896 38.889,252.801 39.164,252.537 39.164 C 252.249 39.164,252.179 39.536,252.179 41.075 C 252.179 42.826,252.139 42.985,251.701 42.985 C 251.282 42.985,251.224 43.144,251.224 44.299 C 251.224 45.453,251.166 45.612,250.746 45.612 C 250.318 45.612,250.269 45.771,250.269 47.142 C 250.269 48.554,250.232 48.662,249.791 48.547 C 249.387 48.441,249.313 48.221,249.313 47.114 C 249.313 46.007,249.240 45.787,248.836 45.681 C 248.433 45.576,248.358 45.355,248.358 44.271 C 248.358 43.144,248.299 42.985,247.881 42.985 C 247.456 42.985,247.403 42.826,247.403 41.552 C 247.403 40.279,247.350 40.119,246.925 40.119 C 246.501 40.119,246.448 39.960,246.448 38.687 C 246.448 37.572,246.368 37.254,246.090 37.254 C 245.826 37.254,245.731 36.978,245.731 36.209 C 245.731 34.689,245.480 33.672,245.104 33.672 C 244.870 33.672,244.776 33.332,244.776 32.480 C 244.776 31.546,244.672 31.223,244.299 30.989 C 244.036 30.825,243.821 30.568,243.821 30.418 C 243.821 29.915,237.809 29.568,236.716 30.009 M285.791 30.015 C 285.398 30.118,285.373 31.109,285.373 46.585 L 285.373 63.045 288.955 63.045 L 292.537 63.045 292.537 56.597 L 292.537 50.149 298.149 50.149 L 303.761 50.149 303.761 56.597 L 303.761 63.045 307.463 63.045 L 311.164 63.045 311.164 46.595 L 311.164 30.145 310.627 30.001 C 309.923 29.813,305.803 29.815,304.657 30.004 L 303.761 30.152 303.761 36.569 L 303.761 42.985 298.149 42.985 L 292.537 42.985 292.537 36.567 L 292.537 30.149 291.791 30.000 C 290.959 29.834,286.443 29.845,285.791 30.015 M89.791 36.896 C 89.791 37.154,90.056 37.254,90.746 37.254 C 91.542 37.254,91.701 37.333,91.701 37.731 C 91.701 38.050,91.861 38.209,92.179 38.209 C 92.498 38.209,92.657 38.368,92.657 38.687 C 92.657 39.005,92.816 39.164,93.134 39.164 C 93.453 39.164,93.612 39.323,93.612 39.642 C 93.612 39.960,93.771 40.119,94.090 40.119 C 94.408 40.119,94.567 40.279,94.567 40.597 C 94.567 40.860,94.715 41.075,94.895 41.075 C 95.092 41.075,95.283 41.454,95.375 42.030 C 95.474 42.648,95.653 42.985,95.883 42.985 C 96.404 42.985,96.414 50.031,95.894 50.231 C 95.704 50.303,95.477 50.745,95.390 51.211 C 95.298 51.700,95.090 52.060,94.899 52.060 C 94.716 52.060,94.567 52.275,94.567 52.537 C 94.567 52.856,94.408 53.015,94.090 53.015 C 93.771 53.015,93.612 53.174,93.612 53.493 C 93.612 53.811,93.453 53.970,93.134 53.970 C 92.816 53.970,92.657 54.129,92.657 54.448 C 92.657 54.766,92.498 54.925,92.179 54.925 C 91.861 54.925,91.701 55.085,91.701 55.403 C 91.701 55.801,91.542 55.881,90.746 55.881 C 90.056 55.881,89.791 55.980,89.791 56.239 C 89.791 56.536,89.327 56.597,87.045 56.597 C 84.763 56.597,84.299 56.536,84.299 56.239 C 84.299 55.980,84.033 55.881,83.343 55.881 C 82.547 55.881,82.388 55.801,82.388 55.403 C 82.388 55.140,82.239 54.925,82.058 54.925 C 81.876 54.925,81.671 54.710,81.602 54.448 C 81.534 54.185,81.319 53.970,81.125 53.970 C 80.931 53.970,80.716 53.755,80.647 53.493 C 80.579 53.230,80.351 53.015,80.142 53.015 C 79.920 53.015,79.761 52.815,79.761 52.537 C 79.761 52.219,79.602 52.060,79.284 52.060 C 78.864 52.060,78.806 51.900,78.806 50.746 C 78.806 49.592,78.748 49.433,78.328 49.433 C 77.877 49.433,77.851 49.274,77.851 46.567 C 77.851 43.861,77.877 43.701,78.328 43.701 C 78.714 43.701,78.806 43.542,78.806 42.874 C 78.806 42.291,78.947 41.971,79.284 41.791 C 79.590 41.627,79.761 41.291,79.761 40.855 C 79.761 40.376,79.902 40.138,80.239 40.050 C 80.501 39.982,80.716 39.754,80.716 39.545 C 80.716 39.335,80.888 39.164,81.097 39.164 C 81.306 39.164,81.534 38.949,81.602 38.687 C 81.671 38.424,81.876 38.209,82.058 38.209 C 82.239 38.209,82.388 37.994,82.388 37.731 C 82.388 37.333,82.547 37.254,83.343 37.254 C 84.033 37.254,84.299 37.154,84.299 36.896 C 84.299 36.598,84.763 36.537,87.045 36.537 C 89.327 36.537,89.791 36.598,89.791 36.896 M338.866 36.896 C 338.866 37.143,339.115 37.254,339.674 37.254 C 340.281 37.254,340.513 37.372,340.607 37.731 C 340.702 38.097,340.932 38.209,341.590 38.209 C 342.289 38.209,342.448 38.298,342.448 38.687 C 342.448 39.005,342.607 39.164,342.925 39.164 C 343.244 39.164,343.403 39.323,343.403 39.642 C 343.403 39.960,343.562 40.119,343.881 40.119 C 344.264 40.119,344.358 40.279,344.358 40.930 C 344.358 41.430,344.495 41.793,344.716 41.877 C 344.929 41.959,345.075 42.318,345.075 42.761 C 345.075 43.307,345.203 43.541,345.552 43.632 C 345.996 43.748,346.030 43.958,346.030 46.567 C 346.030 49.176,345.996 49.386,345.552 49.502 C 345.203 49.593,345.075 49.828,345.075 50.373 C 345.075 50.816,344.929 51.175,344.716 51.257 C 344.495 51.342,344.358 51.705,344.358 52.205 C 344.358 52.856,344.264 53.015,343.881 53.015 C 343.562 53.015,343.403 53.174,343.403 53.493 C 343.403 53.811,343.244 53.970,342.925 53.970 C 342.607 53.970,342.448 54.129,342.448 54.448 C 342.448 54.837,342.289 54.925,341.590 54.925 C 340.932 54.925,340.702 55.037,340.607 55.403 C 340.514 55.758,340.281 55.881,339.699 55.881 C 339.224 55.881,338.863 56.021,338.779 56.239 C 338.577 56.767,334.090 56.767,334.090 56.239 C 334.090 55.980,333.824 55.881,333.134 55.881 C 332.338 55.881,332.179 55.801,332.179 55.403 C 332.179 55.085,332.020 54.925,331.701 54.925 C 331.383 54.925,331.224 54.766,331.224 54.448 C 331.224 54.129,331.065 53.970,330.746 53.970 C 330.428 53.970,330.269 53.811,330.269 53.493 C 330.269 53.230,330.120 53.015,329.938 53.015 C 329.757 53.015,329.552 52.800,329.483 52.537 C 329.414 52.275,329.187 52.060,328.978 52.060 C 328.704 52.060,328.597 51.832,328.597 51.252 C 328.597 50.656,328.477 50.412,328.139 50.324 C 327.298 50.104,327.296 43.127,328.138 42.860 C 328.473 42.753,328.597 42.493,328.597 41.894 C 328.597 41.304,328.703 41.075,328.978 41.075 C 329.187 41.075,329.414 40.860,329.483 40.597 C 329.552 40.334,329.757 40.119,329.938 40.119 C 330.120 40.119,330.269 39.904,330.269 39.642 C 330.269 39.323,330.428 39.164,330.746 39.164 C 331.065 39.164,331.224 39.005,331.224 38.687 C 331.224 38.368,331.383 38.209,331.701 38.209 C 332.020 38.209,332.179 38.050,332.179 37.731 C 332.179 37.333,332.338 37.254,333.134 37.254 C 333.824 37.254,334.090 37.154,334.090 36.896 C 334.090 36.601,334.514 36.537,336.478 36.537 C 338.441 36.537,338.866 36.601,338.866 36.896 M63.045 82.961 C 63.045 83.224,62.414 83.312,60.043 83.378 C 57.487 83.450,57.006 83.525,56.807 83.881 C 56.629 84.199,56.263 84.299,55.272 84.299 C 54.129 84.299,53.970 84.357,53.970 84.776 C 53.970 85.197,53.811 85.254,52.634 85.254 C 51.499 85.254,51.280 85.326,51.174 85.731 C 51.080 86.090,50.848 86.209,50.241 86.209 C 49.592 86.209,49.433 86.303,49.433 86.687 C 49.433 87.085,49.274 87.164,48.478 87.164 C 47.682 87.164,47.522 87.244,47.522 87.642 C 47.522 88.040,47.363 88.119,46.567 88.119 C 45.771 88.119,45.612 88.199,45.612 88.597 C 45.612 88.995,45.453 89.075,44.657 89.075 C 44.131 89.075,43.701 89.177,43.701 89.303 C 43.701 89.768,42.465 90.746,41.877 90.746 C 41.470 90.746,41.227 90.904,41.144 91.224 C 41.075 91.488,40.818 91.701,40.569 91.701 C 40.279 91.701,40.119 91.871,40.119 92.179 C 40.119 92.498,39.960 92.657,39.642 92.657 C 39.323 92.657,39.164 92.816,39.164 93.134 C 39.164 93.453,39.005 93.612,38.687 93.612 C 38.368 93.612,38.209 93.771,38.209 94.090 C 38.209 94.408,38.050 94.567,37.731 94.567 C 37.413 94.567,37.254 94.726,37.254 95.045 C 37.254 95.307,37.135 95.522,36.989 95.522 C 36.622 95.522,35.591 96.531,35.586 96.896 C 35.584 97.060,35.367 97.194,35.104 97.194 C 34.786 97.194,34.627 97.353,34.627 97.672 C 34.627 97.990,34.468 98.149,34.149 98.149 C 33.831 98.149,33.672 98.308,33.672 98.627 C 33.672 98.945,33.512 99.104,33.194 99.104 C 32.885 99.104,32.716 99.264,32.716 99.554 C 32.716 99.803,32.503 100.060,32.239 100.129 C 31.873 100.225,31.761 100.455,31.761 101.112 C 31.761 101.811,31.673 101.970,31.284 101.970 C 30.965 101.970,30.806 102.129,30.806 102.448 C 30.806 102.710,30.656 102.925,30.473 102.925 C 30.108 102.925,29.851 103.427,29.851 104.139 C 29.851 104.391,29.690 104.597,29.493 104.597 C 29.234 104.597,29.134 104.862,29.134 105.552 C 29.134 106.348,29.055 106.507,28.657 106.507 C 28.259 106.507,28.179 106.667,28.179 107.463 C 28.179 108.259,28.100 108.418,27.701 108.418 C 27.317 108.418,27.224 108.577,27.224 109.238 C 27.224 109.848,27.102 110.096,26.746 110.209 C 26.346 110.336,26.269 110.570,26.269 111.658 C 26.269 112.796,26.210 112.955,25.791 112.955 C 25.368 112.955,25.313 113.114,25.313 114.360 C 25.313 115.564,25.245 115.783,24.836 115.890 C 24.395 116.005,24.358 116.216,24.358 118.636 C 24.358 121.057,24.322 121.267,23.881 121.383 C 23.041 121.602,23.185 134.209,24.028 134.209 C 24.286 134.209,24.358 134.705,24.358 136.478 C 24.358 138.587,24.392 138.746,24.836 138.746 C 25.271 138.746,25.313 138.905,25.313 140.521 C 25.313 142.086,25.370 142.314,25.791 142.448 C 26.185 142.573,26.269 142.809,26.269 143.800 C 26.269 144.799,26.349 145.021,26.746 145.125 C 27.108 145.220,27.224 145.451,27.224 146.080 C 27.224 146.710,27.339 146.941,27.701 147.035 C 28.058 147.129,28.179 147.361,28.179 147.952 C 28.179 148.534,28.306 148.784,28.657 148.896 C 29.012 149.008,29.134 149.257,29.134 149.867 C 29.134 150.406,29.248 150.687,29.465 150.687 C 29.646 150.687,29.851 150.901,29.920 151.164 C 29.989 151.427,30.216 151.642,30.425 151.642 C 30.703 151.642,30.806 151.874,30.806 152.500 C 30.806 153.157,30.918 153.387,31.284 153.483 C 31.548 153.552,31.761 153.809,31.761 154.058 C 31.761 154.348,31.930 154.507,32.239 154.507 C 32.625 154.507,32.716 154.667,32.716 155.343 C 32.716 156.020,32.807 156.179,33.194 156.179 C 33.512 156.179,33.672 156.338,33.672 156.657 C 33.672 156.975,33.831 157.134,34.149 157.134 C 34.468 157.134,34.627 157.294,34.627 157.612 C 34.627 157.930,34.786 158.090,35.104 158.090 C 35.423 158.090,35.582 158.249,35.582 158.567 C 35.582 158.830,35.736 159.045,35.924 159.045 C 36.112 159.045,36.335 159.260,36.418 159.522 C 36.501 159.785,36.711 160.000,36.884 160.000 C 37.057 160.000,37.254 160.215,37.323 160.478 C 37.392 160.740,37.619 160.955,37.828 160.955 C 38.038 160.955,38.209 161.109,38.209 161.297 C 38.209 161.486,38.424 161.708,38.687 161.791 C 38.949 161.874,39.164 162.097,39.164 162.285 C 39.164 162.525,39.449 162.627,40.119 162.627 C 40.915 162.627,41.075 162.706,41.075 163.104 C 41.075 163.423,41.234 163.582,41.552 163.582 C 41.871 163.582,42.030 163.741,42.030 164.060 C 42.030 164.378,42.189 164.537,42.507 164.537 C 42.826 164.537,42.985 164.697,42.985 165.015 C 42.985 165.402,43.144 165.493,43.821 165.493 C 44.498 165.493,44.657 165.584,44.657 165.970 C 44.657 166.368,44.816 166.448,45.612 166.448 C 46.408 166.448,46.567 166.527,46.567 166.925 C 46.567 167.323,46.726 167.403,47.522 167.403 C 48.318 167.403,48.478 167.483,48.478 167.881 C 48.478 168.267,48.637 168.358,49.313 168.358 C 49.897 168.358,50.149 168.466,50.149 168.716 C 50.149 168.973,50.411 169.075,51.077 169.075 C 51.803 169.075,52.031 169.178,52.129 169.552 C 52.235 169.958,52.455 170.030,53.590 170.030 C 54.766 170.030,54.925 170.087,54.925 170.507 C 54.925 170.952,55.085 170.985,57.194 170.985 C 59.303 170.985,59.463 171.019,59.463 171.463 C 59.463 171.931,59.622 171.940,67.246 171.940 C 74.829 171.940,75.033 171.928,75.155 171.463 C 75.268 171.028,75.480 170.985,77.520 170.985 C 79.602 170.985,79.761 170.951,79.761 170.507 C 79.761 170.088,79.920 170.030,81.075 170.030 C 82.229 170.030,82.388 169.972,82.388 169.552 C 82.388 169.128,82.547 169.075,83.821 169.075 C 84.935 169.075,85.254 168.995,85.254 168.716 C 85.254 168.497,85.477 168.358,85.831 168.358 C 86.656 168.358,87.164 168.121,87.164 167.736 C 87.164 167.515,87.445 167.403,88.000 167.403 C 88.677 167.403,88.836 167.312,88.836 166.925 C 88.836 166.536,88.995 166.448,89.694 166.448 C 90.351 166.448,90.581 166.336,90.677 165.970 C 90.746 165.706,91.003 165.493,91.252 165.493 C 91.542 165.493,91.701 165.323,91.701 165.015 C 91.701 164.630,91.861 164.537,92.521 164.537 C 93.131 164.537,93.380 164.415,93.493 164.060 C 93.576 163.797,93.808 163.582,94.009 163.582 C 94.209 163.582,94.429 163.367,94.498 163.104 C 94.567 162.842,94.772 162.627,94.953 162.627 C 95.135 162.627,95.284 162.466,95.284 162.269 C 95.284 162.070,95.496 161.910,95.761 161.910 C 96.080 161.910,96.239 161.751,96.239 161.433 C 96.239 161.114,96.398 160.955,96.716 160.955 C 97.035 160.955,97.194 160.796,97.194 160.478 C 97.194 160.159,97.353 160.000,97.672 160.000 C 97.990 160.000,98.149 159.841,98.149 159.522 C 98.149 159.204,98.308 159.045,98.627 159.045 C 98.945 159.045,99.104 158.886,99.104 158.567 C 99.104 158.249,99.264 158.090,99.582 158.090 C 99.900 158.090,100.060 157.930,100.060 157.612 C 100.060 157.294,100.219 157.134,100.537 157.134 C 100.856 157.134,101.015 156.975,101.015 156.657 C 101.015 156.391,101.174 156.179,101.373 156.179 C 101.648 156.179,101.731 155.874,101.731 154.866 C 101.731 153.907,101.642 153.552,101.401 153.552 C 101.219 153.552,101.014 153.337,100.946 153.075 C 100.877 152.812,100.657 152.597,100.456 152.597 C 100.256 152.597,100.024 152.382,99.940 152.119 C 99.827 151.764,99.579 151.642,98.969 151.642 C 98.308 151.642,98.149 151.549,98.149 151.164 C 98.149 150.856,97.990 150.687,97.699 150.687 C 97.451 150.687,97.194 150.473,97.125 150.209 C 97.056 149.946,96.829 149.731,96.619 149.731 C 96.410 149.731,96.239 149.570,96.239 149.373 C 96.239 149.123,95.987 149.015,95.403 149.015 C 94.726 149.015,94.567 148.924,94.567 148.537 C 94.567 148.219,94.408 148.060,94.090 148.060 C 93.771 148.060,93.612 147.900,93.612 147.582 C 93.612 147.264,93.453 147.104,93.134 147.104 C 92.857 147.104,92.657 146.945,92.657 146.724 C 92.657 146.515,92.452 146.290,92.201 146.224 C 91.951 146.159,91.691 145.895,91.624 145.638 C 91.515 145.223,91.321 145.179,89.870 145.242 L 88.239 145.313 88.165 146.209 C 88.107 146.911,87.990 147.104,87.627 147.104 C 87.323 147.104,87.164 147.269,87.164 147.582 C 87.164 147.900,87.005 148.060,86.687 148.060 C 86.368 148.060,86.209 148.219,86.209 148.537 C 86.209 148.856,86.050 149.015,85.731 149.015 C 85.466 149.015,85.254 149.174,85.254 149.373 C 85.254 149.570,85.082 149.731,84.873 149.731 C 84.664 149.731,84.436 149.946,84.368 150.209 C 84.278 150.552,84.042 150.687,83.532 150.687 C 83.022 150.687,82.786 150.821,82.696 151.164 C 82.627 151.429,82.370 151.642,82.121 151.642 C 81.831 151.642,81.672 151.811,81.672 152.119 C 81.672 152.517,81.512 152.597,80.716 152.597 C 79.920 152.597,79.761 152.677,79.761 153.075 C 79.761 153.473,79.602 153.552,78.806 153.552 C 78.010 153.552,77.851 153.632,77.851 154.030 C 77.851 154.450,77.692 154.507,76.537 154.507 C 75.383 154.507,75.224 154.565,75.224 154.985 C 75.224 155.410,75.065 155.463,73.791 155.463 C 72.677 155.463,72.358 155.542,72.358 155.821 C 72.358 156.126,71.735 156.179,68.179 156.179 C 64.624 156.179,64.000 156.126,64.000 155.821 C 64.000 155.535,63.645 155.463,62.237 155.463 C 60.674 155.463,60.459 155.408,60.349 154.985 C 60.243 154.579,60.023 154.507,58.888 154.507 C 57.711 154.507,57.552 154.451,57.552 154.030 C 57.552 153.632,57.393 153.552,56.597 153.552 C 55.801 153.552,55.642 153.473,55.642 153.075 C 55.642 152.688,55.483 152.597,54.806 152.597 C 54.129 152.597,53.970 152.506,53.970 152.119 C 53.970 151.801,53.811 151.642,53.493 151.642 C 53.230 151.642,53.015 151.492,53.015 151.309 C 53.015 150.924,52.506 150.687,51.682 150.687 C 51.264 150.687,51.104 150.555,51.104 150.209 C 51.104 149.891,50.945 149.731,50.627 149.731 C 50.362 149.731,50.149 149.572,50.149 149.373 C 50.149 149.174,49.937 149.015,49.672 149.015 C 49.353 149.015,49.194 148.856,49.194 148.537 C 49.194 148.272,49.035 148.060,48.836 148.060 C 48.637 148.060,48.478 147.847,48.478 147.582 C 48.478 147.264,48.318 147.104,48.000 147.104 C 47.682 147.104,47.522 146.945,47.522 146.627 C 47.522 146.308,47.363 146.149,47.045 146.149 C 46.656 146.149,46.567 145.990,46.567 145.291 C 46.567 144.634,46.455 144.404,46.090 144.308 C 45.827 144.239,45.612 144.024,45.612 143.830 C 45.612 143.636,45.397 143.421,45.134 143.353 C 44.775 143.259,44.657 143.027,44.657 142.420 C 44.657 141.771,44.563 141.612,44.179 141.612 C 43.781 141.612,43.701 141.453,43.701 140.657 C 43.701 139.861,43.622 139.701,43.224 139.701 C 42.826 139.701,42.746 139.542,42.746 138.746 C 42.746 138.056,42.647 137.791,42.388 137.791 C 42.124 137.791,42.030 137.516,42.030 136.746 C 42.030 135.226,41.779 134.209,41.403 134.209 C 41.143 134.209,41.075 133.619,41.075 131.363 C 41.075 128.324,40.977 127.761,40.452 127.761 C 39.935 127.761,40.060 126.877,40.597 126.737 C 41.044 126.620,41.075 126.411,41.075 123.513 C 41.075 120.615,41.106 120.406,41.552 120.289 C 41.958 120.183,42.030 119.963,42.030 118.828 C 42.030 117.800,42.112 117.493,42.388 117.493 C 42.640 117.493,42.746 117.238,42.746 116.634 C 42.746 115.977,42.858 115.747,43.224 115.651 C 43.579 115.559,43.701 115.326,43.701 114.746 C 43.701 114.167,43.824 113.934,44.179 113.841 C 44.545 113.746,44.657 113.516,44.657 112.858 C 44.657 112.159,44.745 112.000,45.134 112.000 C 45.532 112.000,45.612 111.841,45.612 111.045 C 45.612 110.249,45.692 110.090,46.090 110.090 C 46.352 110.090,46.567 109.941,46.567 109.759 C 46.567 109.577,46.782 109.373,47.045 109.304 C 47.307 109.235,47.522 109.008,47.522 108.798 C 47.522 108.589,47.676 108.418,47.865 108.418 C 48.053 108.418,48.275 108.203,48.358 107.940 C 48.442 107.678,48.664 107.463,48.852 107.463 C 49.040 107.463,49.194 107.248,49.194 106.985 C 49.194 106.667,49.353 106.507,49.672 106.507 C 49.990 106.507,50.149 106.348,50.149 106.030 C 50.149 105.711,50.308 105.552,50.627 105.552 C 50.945 105.552,51.104 105.393,51.104 105.075 C 51.104 104.756,51.264 104.597,51.582 104.597 C 51.900 104.597,52.060 104.438,52.060 104.119 C 52.060 103.734,52.219 103.642,52.884 103.642 C 53.337 103.642,53.794 103.499,53.899 103.325 C 54.004 103.151,54.278 102.940,54.507 102.855 C 54.737 102.771,54.925 102.537,54.925 102.336 C 54.925 102.086,55.160 101.970,55.664 101.970 C 56.202 101.970,56.437 101.840,56.528 101.493 C 56.626 101.118,56.854 101.015,57.580 101.015 C 58.348 101.015,58.507 100.933,58.507 100.537 C 58.507 100.117,58.667 100.060,59.843 100.060 C 60.972 100.060,61.198 99.987,61.302 99.589 C 61.525 98.735,74.269 98.741,74.269 99.595 C 74.269 99.998,74.439 100.060,75.554 100.060 C 76.639 100.060,76.859 100.134,76.965 100.537 C 77.060 100.903,77.290 101.015,77.948 101.015 C 78.522 101.015,78.806 101.125,78.806 101.348 C 78.806 101.728,79.313 101.970,80.111 101.970 C 80.460 101.970,80.706 102.145,80.786 102.448 C 80.877 102.796,81.111 102.925,81.649 102.925 C 82.147 102.925,82.388 103.042,82.388 103.284 C 82.388 103.483,82.600 103.642,82.866 103.642 C 83.184 103.642,83.343 103.801,83.343 104.119 C 83.343 104.438,83.502 104.597,83.821 104.597 C 84.139 104.597,84.299 104.756,84.299 105.075 C 84.299 105.383,84.458 105.552,84.748 105.552 C 84.997 105.552,85.254 105.766,85.323 106.030 C 85.392 106.293,85.607 106.507,85.801 106.507 C 85.995 106.507,86.209 106.722,86.278 106.985 C 86.347 107.248,86.562 107.463,86.756 107.463 C 86.950 107.463,87.165 107.678,87.233 107.940 C 87.302 108.203,87.517 108.418,87.711 108.418 C 87.905 108.418,88.120 108.633,88.189 108.896 C 88.298 109.313,88.514 109.373,89.910 109.373 C 91.307 109.373,91.523 109.313,91.632 108.896 C 91.701 108.631,91.958 108.418,92.207 108.418 C 92.498 108.418,92.657 108.249,92.657 107.940 C 92.657 107.566,92.816 107.463,93.395 107.463 C 93.933 107.463,94.168 107.333,94.259 106.985 C 94.328 106.721,94.585 106.507,94.834 106.507 C 95.124 106.507,95.284 106.338,95.284 106.030 C 95.284 105.711,95.443 105.552,95.761 105.552 C 96.080 105.552,96.239 105.393,96.239 105.075 C 96.239 104.686,96.398 104.597,97.097 104.597 C 97.754 104.597,97.984 104.485,98.080 104.119 C 98.149 103.855,98.406 103.642,98.655 103.642 C 98.902 103.642,99.104 103.493,99.104 103.311 C 99.104 103.130,99.319 102.925,99.582 102.856 C 99.845 102.787,100.060 102.572,100.060 102.377 C 100.060 102.162,100.387 101.962,100.896 101.867 L 101.731 101.710 101.731 100.041 C 101.731 98.798,101.642 98.339,101.382 98.239 C 101.190 98.165,100.968 97.900,100.889 97.650 C 100.809 97.399,100.590 97.194,100.402 97.194 C 100.214 97.194,100.060 97.033,100.060 96.836 C 100.060 96.637,99.847 96.478,99.582 96.478 C 99.264 96.478,99.104 96.318,99.104 96.000 C 99.104 95.682,98.945 95.522,98.627 95.522 C 98.308 95.522,98.149 95.363,98.149 95.045 C 98.149 94.726,97.990 94.567,97.672 94.567 C 97.353 94.567,97.194 94.408,97.194 94.090 C 97.194 93.771,97.035 93.612,96.716 93.612 C 96.398 93.612,96.239 93.453,96.239 93.134 C 96.239 92.826,96.080 92.657,95.789 92.657 C 95.540 92.657,95.284 92.443,95.214 92.179 C 95.125 91.836,94.889 91.701,94.379 91.701 C 93.868 91.701,93.632 91.567,93.543 91.224 C 93.474 90.961,93.247 90.746,93.037 90.746 C 92.828 90.746,92.657 90.585,92.657 90.388 C 92.657 90.191,92.485 90.030,92.276 90.030 C 92.067 90.030,91.839 89.815,91.771 89.552 C 91.673 89.178,91.445 89.075,90.718 89.075 C 89.950 89.075,89.791 88.993,89.791 88.597 C 89.791 88.214,89.632 88.119,88.983 88.119 C 88.376 88.119,88.144 88.001,88.050 87.642 C 87.956 87.280,87.724 87.164,87.095 87.164 C 86.465 87.164,86.234 87.049,86.140 86.687 C 86.045 86.324,85.814 86.209,85.185 86.209 C 84.555 86.209,84.324 86.093,84.229 85.731 C 84.125 85.334,83.904 85.254,82.904 85.254 C 81.914 85.254,81.677 85.170,81.552 84.776 C 81.419 84.355,81.191 84.299,79.626 84.299 C 78.268 84.299,77.851 84.220,77.851 83.966 C 77.851 83.454,77.294 83.343,74.727 83.343 C 72.781 83.343,72.358 83.279,72.358 82.985 C 72.358 82.679,71.682 82.627,67.701 82.627 C 63.874 82.627,63.045 82.686,63.045 82.961 M147.104 82.985 C 147.104 83.280,146.670 83.343,144.627 83.343 C 141.737 83.343,140.657 83.514,140.657 83.970 C 140.657 84.210,140.295 84.299,139.321 84.299 C 138.186 84.299,137.966 84.370,137.860 84.776 C 137.755 85.178,137.535 85.254,136.466 85.254 C 135.406 85.254,135.171 85.333,135.045 85.731 C 134.932 86.087,134.683 86.209,134.073 86.209 C 133.413 86.209,133.254 86.302,133.254 86.687 C 133.254 87.085,133.095 87.164,132.299 87.164 C 131.502 87.164,131.343 87.244,131.343 87.642 C 131.343 88.040,131.184 88.119,130.388 88.119 C 129.592 88.119,129.433 88.199,129.433 88.597 C 129.433 88.984,129.274 89.075,128.597 89.075 C 128.045 89.075,127.761 89.187,127.761 89.405 C 127.761 89.587,127.546 89.792,127.284 89.860 C 127.021 89.929,126.806 90.156,126.806 90.366 C 126.806 90.609,126.598 90.746,126.228 90.746 C 125.404 90.746,124.896 90.984,124.896 91.369 C 124.896 91.552,124.681 91.701,124.418 91.701 C 124.100 91.701,123.940 91.861,123.940 92.179 C 123.940 92.498,123.781 92.657,123.463 92.657 C 123.144 92.657,122.985 92.816,122.985 93.134 C 122.985 93.453,122.826 93.612,122.507 93.612 C 122.189 93.612,122.030 93.771,122.030 94.090 C 122.030 94.355,121.871 94.567,121.672 94.567 C 121.473 94.567,121.313 94.779,121.313 95.045 C 121.313 95.363,121.154 95.522,120.836 95.522 C 120.570 95.522,120.358 95.682,120.358 95.881 C 120.358 96.078,120.187 96.239,119.978 96.239 C 119.768 96.239,119.541 96.454,119.472 96.716 C 119.403 96.981,119.146 97.194,118.898 97.194 C 118.607 97.194,118.448 97.363,118.448 97.672 C 118.448 97.990,118.289 98.149,117.970 98.149 C 117.652 98.149,117.493 98.308,117.493 98.627 C 117.493 98.905,117.333 99.104,117.112 99.104 C 116.903 99.104,116.675 99.319,116.607 99.582 C 116.538 99.845,116.334 100.060,116.154 100.060 C 115.957 100.060,115.766 100.439,115.674 101.015 C 115.582 101.591,115.391 101.970,115.193 101.970 C 115.013 101.970,114.866 102.185,114.866 102.448 C 114.866 102.766,114.706 102.925,114.388 102.925 C 114.005 102.925,113.910 103.085,113.910 103.733 C 113.910 104.340,113.792 104.572,113.433 104.666 C 113.067 104.762,112.955 104.992,112.955 105.649 C 112.955 106.348,112.867 106.507,112.478 106.507 C 112.080 106.507,112.000 106.667,112.000 107.463 C 112.000 108.259,111.920 108.418,111.522 108.418 C 111.103 108.418,111.045 108.577,111.045 109.731 C 111.045 110.886,110.987 111.045,110.567 111.045 C 110.169 111.045,110.090 111.204,110.090 112.000 C 110.090 112.654,109.985 112.955,109.759 112.955 C 109.331 112.955,109.142 113.700,109.138 115.403 C 109.135 116.397,109.045 116.776,108.811 116.776 C 108.474 116.776,108.179 119.081,108.179 121.715 C 108.179 122.637,108.078 123.039,107.821 123.138 C 107.520 123.253,107.463 123.997,107.463 127.787 C 107.463 131.638,107.515 132.299,107.821 132.299 C 108.095 132.299,108.179 132.600,108.179 133.577 C 108.179 135.908,108.461 137.791,108.810 137.791 C 109.055 137.791,109.134 138.236,109.134 139.604 C 109.134 141.217,109.187 141.432,109.612 141.543 C 110.015 141.648,110.090 141.868,110.090 142.953 C 110.090 144.080,110.149 144.239,110.567 144.239 C 110.965 144.239,111.045 144.398,111.045 145.194 C 111.045 145.990,111.124 146.149,111.522 146.149 C 111.942 146.149,112.000 146.308,112.000 147.463 C 112.000 148.617,112.058 148.776,112.478 148.776 C 112.796 148.776,112.955 148.935,112.955 149.254 C 112.955 149.572,113.114 149.731,113.433 149.731 C 113.831 149.731,113.910 149.891,113.910 150.687 C 113.910 151.483,113.990 151.642,114.388 151.642 C 114.773 151.642,114.866 151.801,114.866 152.466 C 114.866 152.919,115.008 153.376,115.182 153.481 C 115.356 153.586,115.568 153.860,115.652 154.090 C 115.737 154.319,115.958 154.507,116.144 154.507 C 116.330 154.507,116.538 154.722,116.607 154.985 C 116.675 155.248,116.903 155.463,117.112 155.463 C 117.378 155.463,117.493 155.685,117.493 156.201 C 117.493 156.739,117.622 156.974,117.970 157.065 C 118.234 157.134,118.448 157.391,118.448 157.640 C 118.448 157.930,118.617 158.090,118.925 158.090 C 119.244 158.090,119.403 158.249,119.403 158.567 C 119.403 158.886,119.562 159.045,119.881 159.045 C 120.199 159.045,120.358 159.204,120.358 159.522 C 120.358 159.841,120.517 160.000,120.836 160.000 C 121.154 160.000,121.313 160.159,121.313 160.478 C 121.313 160.740,121.424 160.955,121.560 160.955 C 121.695 160.955,122.151 161.331,122.573 161.791 C 123.148 162.418,123.534 162.627,124.118 162.627 C 124.736 162.627,124.896 162.725,124.896 163.104 C 124.896 163.423,125.055 163.582,125.373 163.582 C 125.692 163.582,125.851 163.741,125.851 164.060 C 125.851 164.378,126.010 164.537,126.328 164.537 C 126.647 164.537,126.806 164.697,126.806 165.015 C 126.806 165.398,126.965 165.493,127.614 165.493 C 128.221 165.493,128.453 165.611,128.547 165.970 C 128.642 166.336,128.873 166.448,129.530 166.448 C 130.229 166.448,130.388 166.536,130.388 166.925 C 130.388 167.323,130.547 167.403,131.343 167.403 C 132.139 167.403,132.299 167.483,132.299 167.881 C 132.299 168.279,132.458 168.358,133.254 168.358 C 133.944 168.358,134.209 168.458,134.209 168.716 C 134.209 168.965,134.459 169.075,135.029 169.075 C 135.639 169.075,135.887 169.197,136.000 169.552 C 136.134 169.973,136.361 170.030,137.927 170.030 C 139.542 170.030,139.701 170.073,139.701 170.507 C 139.701 170.942,139.861 170.985,141.465 170.985 C 143.027 170.985,143.242 171.039,143.353 171.463 C 143.475 171.929,143.679 171.940,151.619 171.940 C 159.602 171.940,159.761 171.931,159.761 171.463 C 159.761 171.025,159.920 170.985,161.672 170.985 C 163.423 170.985,163.582 170.945,163.582 170.507 C 163.582 170.083,163.741 170.030,165.015 170.030 C 166.289 170.030,166.448 169.977,166.448 169.552 C 166.448 169.133,166.607 169.075,167.761 169.075 C 168.769 169.075,169.075 168.991,169.075 168.716 C 169.075 168.464,169.329 168.358,169.933 168.358 C 170.590 168.358,170.820 168.246,170.916 167.881 C 171.011 167.519,171.242 167.403,171.871 167.403 C 172.501 167.403,172.732 167.287,172.826 166.925 C 172.920 166.566,173.152 166.448,173.759 166.448 C 174.408 166.448,174.567 166.354,174.567 165.970 C 174.567 165.652,174.726 165.493,175.045 165.493 C 175.363 165.493,175.522 165.333,175.522 165.015 C 175.522 164.617,175.682 164.537,176.478 164.537 C 177.274 164.537,177.433 164.458,177.433 164.060 C 177.433 163.741,177.592 163.582,177.910 163.582 C 178.229 163.582,178.388 163.423,178.388 163.104 C 178.388 162.786,178.547 162.627,178.866 162.627 C 179.128 162.627,179.343 162.478,179.343 162.295 C 179.343 162.105,179.700 161.897,180.179 161.807 C 180.679 161.713,181.015 161.511,181.015 161.303 C 181.015 161.112,181.186 160.955,181.395 160.955 C 181.605 160.955,181.832 160.740,181.901 160.478 C 181.970 160.215,182.185 160.000,182.379 160.000 C 182.573 160.000,182.787 159.785,182.856 159.522 C 182.925 159.260,183.140 159.045,183.334 159.045 C 183.528 159.045,183.740 158.840,183.806 158.589 C 183.871 158.339,184.130 158.080,184.380 158.015 C 184.722 157.925,184.836 157.681,184.836 157.037 C 184.836 156.338,184.924 156.179,185.313 156.179 C 185.579 156.179,185.791 156.020,185.791 155.821 C 185.791 155.624,185.956 155.463,186.157 155.463 C 186.358 155.463,186.592 155.275,186.676 155.045 C 186.761 154.815,186.972 154.541,187.146 154.436 C 187.320 154.331,187.463 153.874,187.463 153.421 C 187.463 152.756,187.555 152.597,187.940 152.597 C 188.259 152.597,188.418 152.438,188.418 152.119 C 188.418 151.801,188.577 151.642,188.896 151.642 C 189.294 151.642,189.373 151.483,189.373 150.687 C 189.373 149.891,189.453 149.731,189.851 149.731 C 190.234 149.731,190.328 149.572,190.328 148.923 C 190.328 148.316,190.447 148.084,190.806 147.991 C 191.168 147.896,191.284 147.665,191.284 147.035 C 191.284 146.406,191.399 146.175,191.761 146.080 C 192.167 145.974,192.239 145.754,192.239 144.619 C 192.239 143.443,192.296 143.284,192.716 143.284 C 193.136 143.284,193.194 143.124,193.194 141.970 C 193.194 140.962,193.277 140.657,193.552 140.657 C 193.841 140.657,193.910 140.285,193.910 138.746 C 193.910 136.995,193.950 136.836,194.388 136.836 C 194.858 136.836,194.866 136.677,194.866 127.261 C 194.866 117.887,194.856 117.684,194.388 117.562 C 193.965 117.451,193.910 117.236,193.910 115.674 C 193.910 114.266,193.838 113.910,193.552 113.910 C 193.288 113.910,193.194 113.634,193.194 112.855 C 193.194 111.573,193.012 111.045,192.571 111.045 C 192.350 111.045,192.239 110.764,192.239 110.209 C 192.239 109.532,192.148 109.373,191.761 109.373 C 191.341 109.373,191.284 109.214,191.284 108.037 C 191.284 106.902,191.212 106.683,190.806 106.577 C 190.542 106.508,190.328 106.251,190.328 106.002 C 190.328 105.711,190.159 105.552,189.851 105.552 C 189.462 105.552,189.373 105.393,189.373 104.694 C 189.373 104.037,189.261 103.807,188.896 103.711 C 188.537 103.617,188.418 103.385,188.418 102.778 C 188.418 102.129,188.324 101.970,187.940 101.970 C 187.622 101.970,187.463 101.811,187.463 101.493 C 187.463 101.230,187.311 101.015,187.125 101.015 C 186.918 101.015,186.726 100.647,186.627 100.060 C 186.528 99.472,186.336 99.104,186.128 99.104 C 185.943 99.104,185.791 98.933,185.791 98.724 C 185.791 98.515,185.576 98.287,185.313 98.218 C 185.051 98.150,184.836 97.935,184.836 97.741 C 184.836 97.547,184.621 97.332,184.358 97.263 C 184.096 97.195,183.881 96.997,183.881 96.824 C 183.881 96.651,183.666 96.442,183.403 96.358 C 183.140 96.275,182.925 96.053,182.925 95.865 C 182.925 95.676,182.710 95.522,182.448 95.522 C 182.129 95.522,181.970 95.363,181.970 95.045 C 181.970 94.726,181.811 94.567,181.493 94.567 C 181.174 94.567,181.015 94.408,181.015 94.090 C 181.015 93.824,180.856 93.612,180.657 93.612 C 180.460 93.612,180.299 93.441,180.299 93.231 C 180.299 93.022,180.094 92.797,179.843 92.732 C 179.592 92.666,179.334 92.408,179.268 92.157 C 179.179 91.815,178.934 91.701,178.291 91.701 C 177.592 91.701,177.433 91.613,177.433 91.224 C 177.433 90.905,177.274 90.746,176.955 90.746 C 176.693 90.746,176.478 90.592,176.478 90.404 C 176.478 90.216,176.263 89.994,176.000 89.910 C 175.737 89.827,175.522 89.605,175.522 89.417 C 175.522 89.187,175.257 89.075,174.714 89.075 C 174.107 89.075,173.875 88.956,173.782 88.597 C 173.686 88.231,173.456 88.119,172.798 88.119 C 172.100 88.119,171.940 88.031,171.940 87.642 C 171.940 87.244,171.781 87.164,170.985 87.164 C 170.189 87.164,170.030 87.085,170.030 86.687 C 170.030 86.289,169.871 86.209,169.075 86.209 C 168.279 86.209,168.119 86.129,168.119 85.731 C 168.119 85.313,167.960 85.254,166.834 85.254 C 165.749 85.254,165.529 85.179,165.423 84.776 C 165.312 84.352,165.098 84.299,163.513 84.299 C 161.928 84.299,161.713 84.245,161.602 83.821 C 161.487 83.379,161.277 83.343,158.828 83.343 C 156.633 83.343,156.179 83.282,156.179 82.985 C 156.179 82.679,155.516 82.627,151.642 82.627 C 147.768 82.627,147.104 82.679,147.104 82.985 M209.672 127.642 L 209.672 170.985 228.060 170.985 C 246.289 170.985,246.448 170.981,246.448 170.507 C 246.448 170.050,246.607 170.030,250.149 170.030 C 253.692 170.030,253.851 170.009,253.851 169.552 C 253.851 169.118,254.010 169.075,255.616 169.075 C 256.965 169.075,257.414 168.990,257.519 168.716 C 257.605 168.492,257.971 168.358,258.500 168.358 C 259.184 168.358,259.343 168.268,259.343 167.881 C 259.343 167.475,259.502 167.403,260.398 167.403 C 261.680 167.403,262.209 167.221,262.209 166.780 C 262.209 166.561,262.487 166.448,263.029 166.448 C 263.639 166.448,263.887 166.326,264.000 165.970 C 264.083 165.707,264.359 165.493,264.613 165.493 C 264.915 165.493,265.075 165.328,265.075 165.015 C 265.075 164.628,265.234 164.537,265.910 164.537 C 266.587 164.537,266.746 164.446,266.746 164.060 C 266.746 163.741,266.905 163.582,267.224 163.582 C 267.542 163.582,267.701 163.423,267.701 163.104 C 267.701 162.786,267.861 162.627,268.179 162.627 C 268.442 162.627,268.657 162.479,268.657 162.299 C 268.657 162.118,268.990 161.903,269.398 161.822 C 270.172 161.667,271.272 160.793,271.279 160.326 C 271.282 160.177,271.499 160.000,271.761 159.931 C 272.127 159.835,272.239 159.605,272.239 158.948 C 272.239 158.249,272.327 158.090,272.716 158.090 C 273.035 158.090,273.194 157.930,273.194 157.612 C 273.194 157.294,273.353 157.134,273.672 157.134 C 273.990 157.134,274.149 156.975,274.149 156.657 C 274.149 156.338,274.308 156.179,274.627 156.179 C 274.945 156.179,275.104 156.020,275.104 155.701 C 275.104 155.383,275.264 155.224,275.582 155.224 C 275.966 155.224,276.060 155.065,276.060 154.416 C 276.060 153.809,276.178 153.577,276.537 153.483 C 276.899 153.388,277.015 153.157,277.015 152.528 C 277.015 151.898,277.130 151.667,277.493 151.573 C 277.858 151.477,277.970 151.247,277.970 150.590 C 277.970 149.986,278.076 149.731,278.328 149.731 C 278.579 149.731,278.687 149.479,278.687 148.896 C 278.687 148.219,278.778 148.060,279.164 148.060 C 279.589 148.060,279.642 147.900,279.642 146.627 C 279.642 145.353,279.695 145.194,280.119 145.194 C 280.538 145.194,280.597 145.035,280.597 143.908 C 280.597 142.824,280.672 142.603,281.075 142.498 C 281.499 142.387,281.552 142.172,281.552 140.588 C 281.552 139.003,281.606 138.788,282.030 138.677 C 282.499 138.554,282.507 138.351,282.507 127.680 C 282.507 117.018,282.498 116.805,282.030 116.657 C 281.609 116.523,281.552 116.295,281.552 114.730 C 281.552 113.114,281.509 112.955,281.075 112.955 C 280.639 112.955,280.597 112.796,280.597 111.164 C 280.597 109.532,280.555 109.373,280.119 109.373 C 279.721 109.373,279.642 109.214,279.642 108.418 C 279.642 107.622,279.562 107.463,279.164 107.463 C 278.744 107.463,278.687 107.303,278.687 106.142 C 278.687 105.229,278.583 104.781,278.352 104.692 C 278.168 104.622,277.948 104.195,277.863 103.745 C 277.772 103.257,277.569 102.925,277.362 102.925 C 277.171 102.925,277.015 102.710,277.015 102.448 C 277.015 102.129,276.856 101.970,276.537 101.970 C 276.139 101.970,276.060 101.811,276.060 101.015 C 276.060 100.219,275.980 100.060,275.582 100.060 C 275.264 100.060,275.104 99.900,275.104 99.582 C 275.104 99.264,274.945 99.104,274.627 99.104 C 274.242 99.104,274.149 98.945,274.149 98.285 C 274.149 97.675,274.027 97.426,273.672 97.313 C 273.409 97.230,273.194 97.008,273.194 96.820 C 273.194 96.632,272.979 96.478,272.716 96.478 C 272.398 96.478,272.239 96.318,272.239 96.000 C 272.239 95.735,272.080 95.522,271.881 95.522 C 271.682 95.522,271.522 95.310,271.522 95.045 C 271.522 94.726,271.363 94.567,271.045 94.567 C 270.726 94.567,270.567 94.408,270.567 94.090 C 270.567 93.771,270.408 93.612,270.090 93.612 C 269.771 93.612,269.612 93.453,269.612 93.134 C 269.612 92.826,269.453 92.657,269.162 92.657 C 268.913 92.657,268.657 92.443,268.588 92.179 C 268.492 91.813,268.262 91.701,267.604 91.701 C 266.905 91.701,266.746 91.613,266.746 91.224 C 266.746 90.905,266.587 90.746,266.269 90.746 C 266.006 90.746,265.791 90.597,265.791 90.414 C 265.791 90.048,265.289 89.791,264.577 89.791 C 264.326 89.791,264.119 89.630,264.119 89.433 C 264.119 89.236,263.917 89.075,263.670 89.075 C 263.421 89.075,263.164 88.861,263.095 88.597 C 263.000 88.235,262.769 88.119,262.140 88.119 C 261.510 88.119,261.279 88.004,261.185 87.642 C 261.081 87.245,260.859 87.164,259.871 87.164 C 258.883 87.164,258.661 87.083,258.558 86.687 C 258.452 86.281,258.232 86.209,257.097 86.209 C 255.920 86.209,255.761 86.152,255.761 85.731 C 255.761 85.288,255.602 85.254,253.520 85.254 C 251.480 85.254,251.268 85.211,251.155 84.776 C 251.031 84.303,250.829 84.299,230.351 84.299 L 209.672 84.299 209.672 127.642 M298.269 127.642 L 298.269 170.985 325.373 170.985 L 352.478 170.985 352.478 163.224 L 352.478 155.463 333.612 155.463 L 314.746 155.463 314.746 145.672 L 314.746 135.881 330.866 135.881 L 346.985 135.881 346.985 128.119 L 346.985 120.358 330.866 120.358 L 314.746 120.358 314.746 109.731 L 314.746 99.104 333.134 99.104 L 351.522 99.104 351.522 91.701 L 351.522 84.299 324.896 84.299 L 298.269 84.299 298.269 127.642 M158.090 99.595 C 158.090 100.000,158.261 100.060,159.425 100.060 C 160.560 100.060,160.780 100.132,160.886 100.537 C 160.979 100.892,161.212 101.015,161.791 101.015 C 162.370 101.015,162.603 101.138,162.696 101.493 C 162.791 101.855,163.022 101.970,163.651 101.970 C 164.281 101.970,164.512 102.086,164.607 102.448 C 164.675 102.710,164.903 102.925,165.112 102.925 C 165.321 102.925,165.493 103.087,165.493 103.284 C 165.493 103.542,165.758 103.642,166.448 103.642 C 167.244 103.642,167.403 103.721,167.403 104.119 C 167.403 104.385,167.562 104.597,167.761 104.597 C 167.960 104.597,168.119 104.809,168.119 105.075 C 168.119 105.393,168.279 105.552,168.597 105.552 C 168.875 105.552,169.075 105.711,169.075 105.933 C 169.075 106.142,169.290 106.370,169.552 106.438 C 169.815 106.507,170.030 106.722,170.030 106.916 C 170.030 107.110,170.245 107.325,170.507 107.393 C 170.772 107.463,170.985 107.719,170.985 107.968 C 170.985 108.259,171.154 108.418,171.463 108.418 C 171.781 108.418,171.940 108.577,171.940 108.896 C 171.940 109.214,172.100 109.373,172.418 109.373 C 172.805 109.373,172.896 109.532,172.896 110.209 C 172.896 110.886,172.986 111.045,173.373 111.045 C 173.692 111.045,173.851 111.204,173.851 111.522 C 173.851 111.788,174.010 112.000,174.209 112.000 C 174.461 112.000,174.567 112.255,174.567 112.858 C 174.567 113.516,174.679 113.746,175.045 113.841 C 175.407 113.936,175.522 114.167,175.522 114.796 C 175.522 115.426,175.638 115.657,176.000 115.752 C 176.403 115.857,176.478 116.077,176.478 117.162 C 176.478 118.289,176.537 118.448,176.955 118.448 C 177.390 118.448,177.433 118.607,177.433 120.239 C 177.433 121.871,177.475 122.030,177.910 122.030 C 178.375 122.030,178.388 122.189,178.388 127.642 C 178.388 133.095,178.375 133.254,177.910 133.254 C 177.476 133.254,177.433 133.413,177.433 135.017 C 177.433 136.579,177.378 136.794,176.955 136.905 C 176.589 137.001,176.478 137.231,176.478 137.888 C 176.478 138.462,176.368 138.746,176.145 138.746 C 175.760 138.746,175.522 139.255,175.522 140.079 C 175.522 140.431,175.384 140.657,175.167 140.657 C 174.937 140.657,174.758 140.994,174.659 141.612 C 174.567 142.188,174.376 142.567,174.178 142.567 C 173.963 142.567,173.851 142.854,173.851 143.403 C 173.851 144.080,173.760 144.239,173.373 144.239 C 173.055 144.239,172.896 144.398,172.896 144.716 C 172.896 145.035,172.736 145.194,172.418 145.194 C 172.109 145.194,171.940 145.353,171.940 145.644 C 171.940 145.893,171.727 146.149,171.463 146.218 C 171.097 146.314,170.985 146.544,170.985 147.202 C 170.985 147.900,170.896 148.060,170.507 148.060 C 170.189 148.060,170.030 148.219,170.030 148.537 C 170.030 148.856,169.871 149.015,169.552 149.015 C 169.290 149.015,169.075 149.164,169.075 149.347 C 169.075 149.536,168.718 149.745,168.239 149.835 C 167.738 149.929,167.403 150.131,167.403 150.339 C 167.403 150.530,167.188 150.687,166.925 150.687 C 166.607 150.687,166.448 150.846,166.448 151.164 C 166.448 151.483,166.289 151.642,165.970 151.642 C 165.652 151.642,165.493 151.801,165.493 152.119 C 165.493 152.517,165.333 152.597,164.537 152.597 C 163.741 152.597,163.582 152.677,163.582 153.075 C 163.582 153.464,163.423 153.552,162.724 153.552 C 162.067 153.552,161.837 153.664,161.741 154.030 C 161.635 154.433,161.415 154.507,160.330 154.507 C 159.204 154.507,159.045 154.567,159.045 154.985 C 159.045 155.420,158.886 155.463,157.246 155.463 C 155.868 155.463,155.416 155.546,155.310 155.821 C 155.196 156.120,154.507 156.179,151.164 156.179 C 147.821 156.179,147.133 156.120,147.018 155.821 C 146.913 155.546,146.461 155.463,145.082 155.463 C 143.443 155.463,143.284 155.420,143.284 154.985 C 143.284 154.587,143.124 154.507,142.328 154.507 C 141.532 154.507,141.373 154.428,141.373 154.030 C 141.373 153.646,141.214 153.552,140.565 153.552 C 139.958 153.552,139.726 153.434,139.632 153.075 C 139.537 152.709,139.307 152.597,138.649 152.597 C 137.950 152.597,137.791 152.508,137.791 152.119 C 137.791 151.801,137.632 151.642,137.313 151.642 C 137.051 151.642,136.836 151.492,136.836 151.309 C 136.836 150.924,136.327 150.687,135.503 150.687 C 135.085 150.687,134.925 150.555,134.925 150.209 C 134.925 149.944,134.766 149.731,134.567 149.731 C 134.370 149.731,134.209 149.570,134.209 149.373 C 134.209 149.174,133.997 149.015,133.731 149.015 C 133.413 149.015,133.254 148.856,133.254 148.537 C 133.254 148.219,133.095 148.060,132.776 148.060 C 132.458 148.060,132.299 147.900,132.299 147.582 C 132.299 147.264,132.139 147.104,131.821 147.104 C 131.432 147.104,131.343 146.945,131.343 146.246 C 131.343 145.589,131.232 145.359,130.866 145.263 C 130.601 145.194,130.388 144.937,130.388 144.689 C 130.388 144.398,130.219 144.239,129.910 144.239 C 129.524 144.239,129.433 144.080,129.433 143.403 C 129.433 142.726,129.342 142.567,128.955 142.567 C 128.637 142.567,128.478 142.408,128.478 142.090 C 128.478 141.824,128.318 141.612,128.119 141.612 C 127.867 141.612,127.761 141.357,127.761 140.754 C 127.761 140.096,127.649 139.866,127.284 139.771 C 126.879 139.665,126.806 139.445,126.806 138.338 C 126.806 137.231,126.733 137.011,126.328 136.905 C 125.908 136.795,125.851 136.579,125.851 135.114 C 125.851 133.649,125.793 133.433,125.373 133.323 C 124.912 133.202,124.896 132.997,124.896 127.284 C 124.896 121.570,124.912 121.365,125.373 121.244 C 125.779 121.138,125.851 120.919,125.851 119.784 C 125.851 118.801,125.939 118.448,126.183 118.448 C 126.607 118.448,126.806 117.925,126.806 116.814 C 126.806 116.194,126.947 115.848,127.284 115.638 C 127.588 115.447,127.761 115.081,127.761 114.625 C 127.761 114.149,127.881 113.910,128.119 113.910 C 128.378 113.910,128.478 113.645,128.478 112.955 C 128.478 112.159,128.557 112.000,128.955 112.000 C 129.274 112.000,129.433 111.841,129.433 111.522 C 129.433 111.204,129.592 111.045,129.910 111.045 C 130.294 111.045,130.388 110.886,130.388 110.237 C 130.388 109.630,130.507 109.398,130.866 109.304 C 131.128 109.235,131.343 109.008,131.343 108.798 C 131.343 108.589,131.508 108.418,131.709 108.418 C 131.910 108.418,132.141 108.246,132.221 108.036 C 132.409 107.547,133.444 106.507,133.742 106.507 C 133.868 106.507,133.970 106.293,133.970 106.030 C 133.970 105.711,134.129 105.552,134.448 105.552 C 134.766 105.552,134.925 105.393,134.925 105.075 C 134.925 104.756,135.085 104.597,135.403 104.597 C 135.721 104.597,135.881 104.438,135.881 104.119 C 135.881 103.801,136.040 103.642,136.358 103.642 C 136.624 103.642,136.836 103.483,136.836 103.284 C 136.836 103.032,137.090 102.925,137.694 102.925 C 138.351 102.925,138.581 102.814,138.677 102.448 C 138.765 102.110,139.003 101.970,139.489 101.970 C 139.916 101.970,140.287 101.790,140.473 101.493 C 140.672 101.174,141.030 101.015,141.550 101.015 C 142.169 101.015,142.328 100.917,142.328 100.537 C 142.328 100.113,142.488 100.060,143.761 100.060 C 145.028 100.060,145.194 100.005,145.194 99.589 C 145.194 99.056,147.786 98.911,154.687 99.057 C 157.875 99.125,158.090 99.159,158.090 99.595 M244.776 99.582 C 244.776 100.026,244.935 100.060,247.045 100.060 C 248.825 100.060,249.313 100.131,249.313 100.392 C 249.313 100.831,249.841 101.015,251.096 101.015 C 251.923 101.015,252.148 101.108,252.248 101.493 C 252.339 101.840,252.574 101.970,253.112 101.970 C 253.616 101.970,253.851 102.086,253.851 102.336 C 253.851 102.537,254.039 102.771,254.269 102.855 C 254.499 102.940,254.773 103.151,254.878 103.325 C 254.983 103.499,255.439 103.642,255.892 103.642 C 256.557 103.642,256.716 103.734,256.716 104.119 C 256.716 104.438,256.876 104.597,257.194 104.597 C 257.512 104.597,257.672 104.756,257.672 105.075 C 257.672 105.393,257.831 105.552,258.149 105.552 C 258.468 105.552,258.627 105.711,258.627 106.030 C 258.627 106.295,258.786 106.507,258.985 106.507 C 259.182 106.507,259.343 106.679,259.343 106.888 C 259.343 107.097,259.558 107.325,259.821 107.393 C 260.159 107.482,260.299 107.719,260.299 108.205 C 260.299 108.633,260.478 109.004,260.776 109.190 C 261.039 109.354,261.254 109.623,261.254 109.789 C 261.254 109.954,261.469 110.090,261.731 110.090 C 262.129 110.090,262.209 110.249,262.209 111.045 C 262.209 111.841,262.289 112.000,262.687 112.000 C 263.107 112.000,263.164 112.159,263.164 113.336 C 263.164 114.471,263.236 114.690,263.642 114.796 C 264.045 114.902,264.119 115.122,264.119 116.207 C 264.119 117.333,264.179 117.493,264.597 117.493 C 265.035 117.493,265.075 117.652,265.075 119.403 C 265.075 120.942,265.144 121.313,265.433 121.313 C 265.742 121.313,265.791 122.136,265.791 127.284 C 265.791 132.431,265.742 133.254,265.433 133.254 C 265.140 133.254,265.075 133.665,265.075 135.522 C 265.075 137.632,265.041 137.791,264.597 137.791 C 264.172 137.791,264.119 137.950,264.119 139.224 C 264.119 140.498,264.066 140.657,263.642 140.657 C 263.244 140.657,263.164 140.816,263.164 141.612 C 263.164 142.408,263.085 142.567,262.687 142.567 C 262.303 142.567,262.209 142.726,262.209 143.375 C 262.209 143.982,262.090 144.214,261.731 144.308 C 261.366 144.404,261.254 144.634,261.254 145.291 C 261.254 145.990,261.165 146.149,260.776 146.149 C 260.458 146.149,260.299 146.308,260.299 146.627 C 260.299 146.892,260.139 147.104,259.940 147.104 C 259.743 147.104,259.582 147.276,259.582 147.485 C 259.582 147.694,259.367 147.922,259.104 147.991 C 258.840 148.060,258.627 148.316,258.627 148.565 C 258.627 148.856,258.458 149.015,258.149 149.015 C 257.831 149.015,257.672 149.174,257.672 149.493 C 257.672 149.811,257.512 149.970,257.194 149.970 C 256.931 149.970,256.716 150.119,256.716 150.301 C 256.716 150.482,256.501 150.687,256.239 150.756 C 255.976 150.824,255.761 151.052,255.761 151.261 C 255.761 151.483,255.561 151.642,255.284 151.642 C 254.965 151.642,254.806 151.801,254.806 152.119 C 254.806 152.503,254.647 152.597,253.998 152.597 C 253.391 152.597,253.159 152.716,253.065 153.075 C 252.969 153.440,252.739 153.552,252.082 153.552 C 251.383 153.552,251.224 153.641,251.224 154.030 C 251.224 154.465,251.065 154.507,249.449 154.507 C 247.884 154.507,247.656 154.564,247.522 154.985 C 247.374 155.453,247.161 155.463,236.760 155.463 L 226.149 155.463 226.149 127.284 L 226.149 99.104 235.463 99.104 C 244.617 99.104,244.776 99.113,244.776 99.582 M363.701 154.030 C 363.701 154.428,363.542 154.507,362.746 154.507 C 361.950 154.507,361.791 154.587,361.791 154.985 C 361.791 155.303,361.632 155.463,361.313 155.463 C 361.051 155.463,360.836 155.611,360.836 155.793 C 360.836 155.975,360.621 156.180,360.358 156.248 C 360.096 156.317,359.881 156.532,359.881 156.726 C 359.881 156.920,359.666 157.135,359.403 157.204 C 359.037 157.299,358.925 157.529,358.925 158.187 C 358.925 158.761,358.815 159.045,358.593 159.045 C 357.751 159.045,357.610 167.115,358.448 167.334 C 358.807 167.428,358.925 167.660,358.925 168.267 C 358.925 168.915,359.019 169.075,359.403 169.075 C 359.792 169.075,359.881 169.234,359.881 169.933 C 359.881 170.576,359.995 170.821,360.336 170.910 C 360.587 170.976,360.845 171.234,360.911 171.485 C 361.000 171.826,361.245 171.940,361.888 171.940 C 362.587 171.940,362.746 172.029,362.746 172.418 C 362.746 172.814,362.905 172.896,363.674 172.896 C 364.400 172.896,364.628 172.999,364.726 173.373 C 364.842 173.819,365.052 173.851,367.858 173.851 C 370.706 173.851,370.866 173.825,370.866 173.373 C 370.866 172.952,371.025 172.896,372.201 172.896 C 373.336 172.896,373.556 172.824,373.662 172.418 C 373.731 172.154,373.988 171.940,374.237 171.940 C 374.527 171.940,374.687 171.771,374.687 171.463 C 374.687 171.144,374.846 170.985,375.164 170.985 C 375.483 170.985,375.642 170.826,375.642 170.507 C 375.642 170.189,375.801 170.030,376.119 170.030 C 376.438 170.030,376.597 169.871,376.597 169.552 C 376.597 169.287,376.756 169.075,376.955 169.075 C 377.230 169.075,377.313 168.769,377.313 167.761 C 377.313 166.607,377.371 166.448,377.791 166.448 C 378.245 166.448,378.269 166.289,378.269 163.224 C 378.269 160.159,378.245 160.000,377.791 160.000 C 377.393 160.000,377.313 159.841,377.313 159.045 C 377.313 158.355,377.214 158.090,376.955 158.090 C 376.717 158.090,376.597 157.852,376.597 157.382 C 376.597 156.918,376.432 156.585,376.119 156.418 C 375.857 156.277,375.642 156.005,375.642 155.812 C 375.642 155.620,375.439 155.463,375.192 155.463 C 374.943 155.463,374.686 155.249,374.617 154.985 C 374.522 154.619,374.292 154.507,373.634 154.507 C 372.935 154.507,372.776 154.419,372.776 154.030 C 372.776 153.569,372.617 153.552,368.239 153.552 C 363.861 153.552,363.701 153.569,363.701 154.030 M368.239 156.657 C 368.239 157.076,368.398 157.134,369.536 157.134 C 370.624 157.134,370.858 157.212,370.985 157.612 C 371.068 157.875,371.283 158.090,371.463 158.090 C 371.642 158.090,371.857 158.304,371.940 158.567 C 372.024 158.830,372.233 159.045,372.406 159.045 C 372.579 159.045,372.777 159.260,372.845 159.522 C 372.914 159.785,373.141 160.000,373.351 160.000 C 373.627 160.000,373.731 160.230,373.731 160.836 C 373.731 161.512,373.822 161.672,374.209 161.672 C 374.647 161.672,374.687 161.831,374.687 163.582 C 374.687 165.333,374.647 165.493,374.209 165.493 C 373.811 165.493,373.731 165.652,373.731 166.448 C 373.731 167.244,373.652 167.403,373.254 167.403 C 372.935 167.403,372.776 167.244,372.776 166.925 C 372.776 166.607,372.617 166.448,372.299 166.448 C 371.874 166.448,371.821 166.289,371.821 165.015 C 371.821 163.741,371.874 163.582,372.299 163.582 C 372.734 163.582,372.776 163.423,372.776 161.791 C 372.776 160.159,372.734 160.000,372.299 160.000 C 371.980 160.000,371.821 159.841,371.821 159.522 C 371.821 159.204,371.662 159.045,371.343 159.045 C 371.025 159.045,370.866 158.886,370.866 158.567 C 370.866 158.117,370.706 158.090,368.119 158.090 C 365.532 158.090,365.373 158.062,365.373 157.612 C 365.373 157.214,365.532 157.134,366.328 157.134 C 367.124 157.134,367.284 157.055,367.284 156.657 C 367.284 156.338,367.443 156.179,367.761 156.179 C 368.080 156.179,368.239 156.338,368.239 156.657 M363.701 163.321 C 363.701 167.480,363.688 167.594,363.224 167.472 C 362.921 167.393,362.746 167.146,362.746 166.798 C 362.746 166.000,362.504 165.493,362.124 165.493 C 361.517 165.493,361.657 161.046,362.269 160.886 C 362.634 160.790,362.746 160.560,362.746 159.903 C 362.746 159.204,362.835 159.045,363.224 159.045 C 363.684 159.045,363.701 159.204,363.701 163.321 M371.045 169.259 C 370.463 169.313,370.149 169.463,370.149 169.686 C 370.149 169.957,369.742 170.030,368.239 170.030 C 366.700 170.030,366.328 169.960,366.328 169.672 C 366.328 169.416,366.037 169.301,365.313 169.270 C 364.746 169.245,365.141 169.166,366.209 169.091 C 368.182 168.951,372.671 169.107,371.045 169.259 " stroke="none" fill="#040404" fill-rule="evenodd"></path><path id="path2" d="M233.629 213.015 C 233.629 213.869,233.672 214.218,233.725 213.791 C 233.778 213.364,233.778 212.666,233.725 212.239 C 233.672 211.812,233.629 212.161,233.629 213.015 " stroke="none" fill="#046888" fill-rule="evenodd"></path><path id="path3" d="" stroke="none" fill="#042448" fill-rule="evenodd"></path><path id="path4" d="" stroke="none" fill="#042804" fill-rule="evenodd"></path></g></svg>