<svg xmlns="http://www.w3.org/2000/svg" xmlns:xlink="http://www.w3.org/1999/xlink" width="500" zoomAndPan="magnify" viewBox="0 0 375 374.999991" height="500" preserveAspectRatio="xMidYMid meet" version="1.0"><defs><g/></defs><rect x="-37.5" width="450" fill="#ffffff" y="-37.499999" height="449.999989" fill-opacity="1"/><rect x="-37.5" width="450" fill="#ffffff" y="-37.499999" height="449.999989" fill-opacity="1"/><rect x="-37.5" width="450" fill="#007d7f" y="-37.499999" height="449.999989" fill-opacity="1"/><g fill="#ffffff" fill-opacity="1"><g transform="translate(50.7334, 243.517484)"><g><path d="M 139.953125 0 L 139.953125 -118.3125 L 104.476562 -118.3125 L 75.742188 -44.523438 L 47.007812 -118.3125 L 11.707031 -118.3125 L 11.707031 0 L 36.894531 0 L 36.894531 -85.144531 L 70.242188 0 L 81.242188 0 L 114.589844 -85.144531 L 114.589844 0 Z M 139.953125 0 "/></g></g></g><g fill="#ffffff" fill-opacity="1"><g transform="translate(202.38903, 243.517484)"><g><path d="M 68.113281 2.128906 C 95.078125 2.128906 109.976562 -12.238281 118.492188 -26.960938 L 96.851562 -37.425781 C 91.882812 -27.671875 81.242188 -20.222656 68.113281 -20.222656 C 47.539062 -20.222656 31.929688 -36.71875 31.929688 -59.070312 C 31.929688 -81.417969 47.539062 -97.914062 68.113281 -97.914062 C 81.242188 -97.914062 91.882812 -90.289062 96.851562 -80.710938 L 118.492188 -91.351562 C 110.15625 -106.074219 95.078125 -120.265625 68.113281 -120.265625 C 33.523438 -120.265625 6.03125 -95.433594 6.03125 -59.070312 C 6.03125 -22.703125 33.523438 2.128906 68.113281 2.128906 Z M 68.113281 2.128906 "/></g></g></g></svg>