<svg xmlns="http://www.w3.org/2000/svg" xmlns:xlink="http://www.w3.org/1999/xlink" width="500" zoomAndPan="magnify" viewBox="0 0 375 374.999991" height="500" preserveAspectRatio="xMidYMid meet" version="1.0"><defs><g/></defs><rect x="-37.5" width="450" fill="#ffffff" y="-37.499999" height="449.999989" fill-opacity="1"/><rect x="-37.5" width="450" fill="#ffffff" y="-37.499999" height="449.999989" fill-opacity="1"/><rect x="-37.5" width="450" fill="#007d7f" y="-37.499999" height="449.999989" fill-opacity="1"/><g fill="#ffffff" fill-opacity="1"><g transform="translate(51.000001, 243.517558)"><g><path d="M 76.453125 0 L 122.039062 -118.3125 L 93.304688 -118.3125 L 60.664062 -27.316406 L 27.847656 -118.3125 L -0.886719 -118.3125 L 44.878906 0 Z M 76.453125 0 "/></g></g></g><g fill="#ffffff" fill-opacity="1"><g transform="translate(172.32451, 243.517558)"><g><path d="M 139.953125 0 L 139.953125 -118.3125 L 104.476562 -118.3125 L 75.742188 -44.523438 L 47.007812 -118.3125 L 11.707031 -118.3125 L 11.707031 0 L 36.894531 0 L 36.894531 -85.144531 L 70.242188 0 L 81.242188 0 L 114.589844 -85.144531 L 114.589844 0 Z M 139.953125 0 "/></g></g></g></svg>